<?xml version="1.0" encoding="UTF-8"?>
<!DOCTYPE svg PUBLIC "-//W3C//DTD SVG 1.1//EN" "http://www.w3.org/Graphics/SVG/1.1/DTD/svg11.dtd">
<svg xmlns="http://www.w3.org/2000/svg" version="1.1" width="499px" height="499px" style="shape-rendering:geometricPrecision; text-rendering:geometricPrecision; image-rendering:optimizeQuality; fill-rule:evenodd; clip-rule:evenodd" xmlns:xlink="http://www.w3.org/1999/xlink">
<g><path style="opacity:1" fill="#000000" d="M 38.5,35.5 C 64.8418,35.1669 91.1751,35.5002 117.5,36.5C 118.758,50.1432 118.758,63.8099 117.5,77.5C 91.1667,77.5 64.8333,77.5 38.5,77.5C 38.5,63.5 38.5,49.5 38.5,35.5 Z"/></g>
<g><path style="opacity:1" fill="#000000" d="M 147.5,35.5 C 175.5,35.5 203.5,35.5 231.5,35.5C 231.5,49.5 231.5,63.5 231.5,77.5C 203.5,77.5 175.5,77.5 147.5,77.5C 147.5,63.5 147.5,49.5 147.5,35.5 Z"/></g>
<g><path style="opacity:1" fill="#000000" d="M 268.5,35.5 C 332.17,35.1667 395.837,35.5 459.5,36.5C 460.45,49.8928 460.45,63.5595 459.5,77.5C 395.832,77.6667 332.166,77.5 268.5,77C 267.175,63.1667 267.175,49.3334 268.5,35.5 Z"/></g>
<g><path style="opacity:1" fill="#000000" d="M 39.5,109.5 C 103.168,109.333 166.834,109.5 230.5,110C 231.49,123.754 231.823,137.588 231.5,151.5C 167.167,151.5 102.833,151.5 38.5,151.5C 38.1849,137.421 38.5182,123.421 39.5,109.5 Z"/></g>
<g><path style="opacity:1" fill="#000000" d="M 268.5,109.5 C 293.167,109.5 317.833,109.5 342.5,109.5C 342.5,123.5 342.5,137.5 342.5,151.5C 317.5,151.5 292.5,151.5 267.5,151.5C 267.185,137.421 267.518,123.421 268.5,109.5 Z"/></g>
<g><path style="opacity:1" fill="#000000" d="M 379.5,109.5 C 406.175,109.167 432.842,109.5 459.5,110.5C 460.542,124.521 460.542,138.188 459.5,151.5C 432.833,151.5 406.167,151.5 379.5,151.5C 379.5,137.5 379.5,123.5 379.5,109.5 Z"/></g>
<g><path style="opacity:1" fill="#000000" d="M 38.5,183.5 C 64.8354,183.333 91.1688,183.5 117.5,184C 118.302,197.33 118.636,210.664 118.5,224C 92.3132,225.656 65.9798,225.99 39.5,225C 38.5101,211.246 38.1767,197.412 38.5,183.5 Z"/></g>
<g><path style="opacity:1" fill="#000000" d="M 147.5,183.5 C 175.5,183.5 203.5,183.5 231.5,183.5C 231.667,197.171 231.5,210.837 231,224.5C 203.572,225.661 176.072,225.828 148.5,225C 147.51,211.246 147.177,197.412 147.5,183.5 Z"/></g>
<g><path style="opacity:1" fill="#000000" d="M 267.5,183.5 C 331.501,183.333 395.501,183.5 459.5,184C 459.176,197.021 459.51,210.355 460.5,224C 396.642,225.662 332.642,225.996 268.5,225C 267.51,211.246 267.177,197.412 267.5,183.5 Z"/></g>
<g><path style="opacity:1" fill="#000000" d="M 38.5,262.5 C 102.833,262.5 167.167,262.5 231.5,262.5C 231.823,276.412 231.49,290.246 230.5,304C 166.833,304.667 103.167,304.667 39.5,304C 38.5101,290.246 38.1767,276.412 38.5,262.5 Z"/></g>
<g><path style="opacity:1" fill="#000000" d="M 267.5,262.5 C 292.5,262.5 317.5,262.5 342.5,262.5C 342.5,276.5 342.5,290.5 342.5,304.5C 317.831,304.667 293.164,304.5 268.5,304C 267.51,290.246 267.177,276.412 267.5,262.5 Z"/></g>
<g><path style="opacity:1" fill="#000000" d="M 379.5,262.5 C 406.175,262.167 432.842,262.5 459.5,263.5C 459.931,264.293 460.265,265.127 460.5,266C 460.161,278.916 459.828,291.416 459.5,303.5C 432.842,304.5 406.175,304.833 379.5,304.5C 379.5,290.5 379.5,276.5 379.5,262.5 Z"/></g>
<g><path style="opacity:1" fill="#000000" d="M 39.5,341.5 C 65.1688,341.333 90.8355,341.5 116.5,342C 117,342.5 117.5,343 118,343.5C 118.459,356.538 118.626,369.372 118.5,382C 91.9818,383.49 65.3151,383.99 38.5,383.5C 38.1849,369.421 38.5182,355.421 39.5,341.5 Z"/></g>
<g><path style="opacity:1" fill="#000000" d="M 148.5,341.5 C 175.835,341.333 203.169,341.5 230.5,342C 231.49,355.754 231.823,369.588 231.5,383.5C 203.5,383.5 175.5,383.5 147.5,383.5C 147.185,369.421 147.518,355.421 148.5,341.5 Z"/></g>
<g><path style="opacity:1" fill="#000000" d="M 268.5,341.5 C 331.834,341.333 395.168,341.5 458.5,342C 459.167,342.667 459.833,343.333 460.5,344C 460.191,356.216 460.191,368.882 460.5,382C 396.309,383.496 331.976,383.996 267.5,383.5C 267.185,369.421 267.518,355.421 268.5,341.5 Z"/></g>
<g><path style="opacity:1" fill="#000000" d="M 38.5,421.5 C 102.833,421.5 167.167,421.5 231.5,421.5C 231.823,435.412 231.49,449.246 230.5,463C 166.833,463.667 103.167,463.667 39.5,463C 38.5101,449.246 38.1767,435.412 38.5,421.5 Z"/></g>
<g><path style="opacity:1" fill="#000000" d="M 267.5,421.5 C 292.5,421.5 317.5,421.5 342.5,421.5C 342.5,435.5 342.5,449.5 342.5,463.5C 317.831,463.667 293.164,463.5 268.5,463C 267.51,449.246 267.177,435.412 267.5,421.5 Z"/></g>
<g><path style="opacity:1" fill="#000000" d="M 379.5,421.5 C 406.167,421.5 432.833,421.5 459.5,421.5C 459.521,435.363 459.521,449.196 459.5,463C 432.835,463.5 406.169,463.667 379.5,463.5C 379.5,449.5 379.5,435.5 379.5,421.5 Z"/></g>
</svg>
