<?xml version="1.0" standalone="no"?>
<!DOCTYPE svg PUBLIC "-//W3C//DTD SVG 20010904//EN"
 "http://www.w3.org/TR/2001/REC-SVG-20010904/DTD/svg10.dtd">
<svg version="1.0" xmlns="http://www.w3.org/2000/svg"
 width="181.000000pt" height="148.000000pt" viewBox="0 0 181.000000 148.000000"
 preserveAspectRatio="xMidYMid meet">

<g transform="translate(0.000000,148.000000) scale(0.100000,-0.100000)"
fill="#000000" stroke="none">
<path d="M846 1199 c-36 -28 -35 -73 2 -107 l28 -25 -17 -67 c-44 -180 -115
-300 -177 -300 -40 0 -87 38 -132 108 l-42 63 21 23 c44 46 14 126 -47 126
-67 0 -98 -88 -46 -129 14 -11 30 -21 36 -23 14 -5 23 -121 14 -182 -9 -58
-52 -106 -95 -106 -38 0 -135 36 -152 56 -9 11 -9 18 -1 26 13 13 16 67 4 84
-25 38 -103 40 -122 4 -26 -49 3 -120 49 -120 21 0 111 -136 192 -288 36 -69
47 -82 64 -78 11 3 94 12 185 22 191 19 455 15 660 -10 69 -9 126 -13 128 -9
1 5 49 84 106 177 94 155 106 171 141 183 47 16 55 27 55 75 0 42 -27 68 -72
68 -45 0 -70 -33 -66 -88 3 -46 2 -48 -36 -66 -50 -24 -118 -32 -155 -16 -39
16 -61 72 -61 153 0 84 6 100 43 117 42 20 57 61 36 98 -48 86 -170 21 -126
-68 19 -37 16 -45 -41 -122 -61 -81 -125 -94 -179 -36 -51 54 -143 326 -115
336 15 5 42 55 42 77 0 24 -46 65 -73 65 -13 0 -36 -9 -51 -21z"/>
</g>
</svg>
