<?xml version="1.0" standalone="no"?>
<!DOCTYPE svg PUBLIC "-//W3C//DTD SVG 20010904//EN"
 "http://www.w3.org/TR/2001/REC-SVG-20010904/DTD/svg10.dtd">
<svg version="1.0" xmlns="http://www.w3.org/2000/svg"
 width="1200.000000pt" height="1200.000000pt" viewBox="0 0 1200.000000 1200.000000"
 preserveAspectRatio="xMidYMid meet">

<g transform="translate(0.000000,1200.000000) scale(0.100000,-0.100000)"
fill="#000000" stroke="none">
<path d="M5974 11638 c-35 -9 -81 -51 -139 -127 -46 -60 -229 -184 -610 -414
-309 -186 -341 -212 -430 -346 -45 -68 -67 -70 -172 -23 -132 61 -158 63 -560
61 -436 -2 -470 3 -761 106 -112 40 -145 40 -179 2 -32 -35 -40 -56 -74 -193
-54 -222 -89 -305 -199 -469 -217 -324 -306 -519 -326 -721 -4 -36 -10 -66
-13 -68 -3 -3 -60 -12 -126 -21 -198 -27 -231 -42 -570 -253 -311 -195 -425
-244 -605 -261 -101 -9 -131 -25 -160 -85 -31 -64 -26 -125 19 -253 72 -202
81 -297 60 -649 -13 -223 -5 -292 55 -487 59 -187 59 -214 6 -258 -151 -126
-191 -181 -355 -489 -176 -330 -230 -407 -395 -562 -113 -106 -137 -140 -125
-180 4 -13 74 -88 154 -168 l147 -145 99 -180 c131 -240 182 -314 458 -670
l46 -60 -29 -180 c-40 -243 -50 -370 -50 -635 0 -311 -22 -464 -86 -607 -32
-72 -34 -115 -7 -150 32 -45 77 -64 212 -94 222 -50 254 -66 676 -329 239
-149 325 -182 468 -179 102 2 111 -7 121 -120 14 -166 97 -376 212 -537 203
-283 277 -442 303 -654 12 -89 28 -128 67 -159 45 -35 97 -36 229 0 292 77
242 72 670 75 386 3 391 3 478 28 49 15 110 37 137 51 85 43 91 41 252 -106
198 -181 247 -216 453 -318 250 -125 318 -172 461 -316 115 -117 164 -155 199
-155 37 0 97 44 154 114 139 169 251 250 556 401 265 131 322 174 459 350 26
34 32 36 70 32 22 -2 91 -23 152 -45 61 -22 147 -48 190 -58 107 -23 283 -21
462 5 235 35 284 30 554 -58 250 -81 272 -74 308 94 51 235 143 449 289 675
139 214 197 340 222 485 21 126 51 160 151 168 159 14 273 63 585 250 335 201
426 240 598 256 102 9 135 25 159 76 24 49 20 98 -14 177 -69 161 -98 360 -79
544 33 330 21 533 -42 718 -38 109 -34 140 20 188 22 18 54 42 73 53 46 28
248 335 408 620 129 230 186 301 310 381 83 53 110 91 110 153 0 48 9 37 -178
209 -99 90 -147 161 -276 409 -149 289 -201 365 -363 534 -67 70 -95 107 -104
139 -14 46 -10 65 42 225 23 68 23 81 24 450 1 425 6 466 72 625 54 130 60
168 37 215 -25 51 -57 73 -124 84 -190 33 -225 42 -313 84 -52 24 -188 107
-304 184 -291 193 -448 266 -625 287 -48 6 -62 13 -88 42 -25 29 -30 43 -30
84 0 58 -21 162 -50 245 -43 124 -101 225 -288 497 -86 124 -140 272 -162 438
-14 101 -47 170 -95 195 -44 25 -129 15 -220 -24 -38 -16 -117 -39 -175 -51
-112 -23 -139 -24 -650 -4 -197 8 -294 -7 -408 -61 -125 -59 -148 -50 -251 97
-34 48 -77 99 -96 113 -62 48 -248 155 -410 237 -88 45 -198 106 -245 137 -77
51 -199 164 -306 283 -43 48 -71 59 -120 46z m135 -445 c104 -58 660 -392 721
-433 110 -74 180 -176 195 -283 11 -70 -3 -153 -28 -183 -29 -33 -70 -33 -247
0 -283 53 -359 60 -655 61 -249 0 -304 -3 -500 -28 -527 -67 -525 -67 -562
-52 -52 22 -69 71 -54 159 33 198 151 312 495 482 55 27 190 109 299 182 231
153 232 153 336 95z m-2642 -628 c82 -11 208 -15 467 -14 223 0 377 -4 417
-11 157 -29 239 -89 303 -223 47 -96 47 -141 -1 -173 -17 -11 -98 -47 -180
-79 -496 -195 -655 -291 -1305 -787 -95 -73 -137 -88 -198 -69 -108 32 -189
230 -162 394 17 99 52 169 191 381 130 199 193 312 267 484 39 89 53 112 69
112 11 0 71 -7 132 -15z m5223 -36 c0 -39 61 -203 106 -288 25 -46 83 -143
128 -215 111 -175 156 -259 211 -394 62 -153 66 -192 28 -274 -60 -127 -110
-158 -196 -120 -24 11 -147 94 -273 184 -359 258 -602 417 -752 492 -37 18
-177 77 -312 131 -135 53 -276 113 -313 132 l-68 34 88 96 c148 161 234 211
369 215 33 1 146 -4 253 -11 228 -16 437 -10 561 18 47 10 104 19 128 20 36 1
42 -2 42 -20z m-2970 -469 c14 -4 24 -13 22 -21 -2 -8 -106 -194 -231 -414
-126 -220 -331 -582 -456 -805 -256 -456 -305 -535 -354 -567 l-34 -23 -962 0
c-854 0 -967 2 -1008 16 -26 9 -47 20 -47 25 0 29 126 221 237 359 210 263
651 641 1005 861 441 274 797 403 1463 533 127 25 239 47 250 49 21 5 73 -1
115 -13z m990 -20 c333 -58 794 -217 1160 -400 571 -285 1052 -700 1477 -1274
40 -55 70 -103 66 -106 -34 -30 -901 -47 -1593 -32 -469 10 -475 11 -523 73
-14 19 -110 185 -214 369 -104 184 -273 475 -375 645 -182 305 -384 648 -407
693 -7 12 -9 32 -5 44 6 20 10 21 148 15 77 -3 197 -15 266 -27z m-559 -328
c277 -455 845 -1439 836 -1448 -2 -3 -54 -9 -115 -14 -222 -20 -689 -28 -1245
-23 l-567 6 -6 23 c-3 13 -4 26 -2 31 90 165 955 1642 961 1640 5 -1 67 -98
138 -215z m-3725 -547 c4 -11 21 -15 58 -15 63 0 116 -25 216 -100 102 -79
100 -87 -75 -325 -236 -320 -399 -574 -508 -790 -85 -171 -203 -452 -222 -531
-9 -39 -25 -85 -35 -102 -31 -51 -58 -51 -177 4 -129 59 -202 110 -241 169
-55 83 -57 104 -57 642 0 481 0 492 21 520 12 17 73 55 155 98 74 39 233 126
354 194 184 104 469 247 498 250 4 1 10 -6 13 -14z m7245 -101 c79 -24 123
-48 341 -191 216 -143 313 -197 463 -258 124 -50 131 -62 117 -173 -5 -43 -10
-255 -11 -472 -2 -230 -7 -412 -13 -435 -30 -116 -125 -227 -247 -288 -40 -20
-80 -37 -88 -37 -7 0 -18 12 -24 28 -75 206 -206 513 -297 697 -180 364 -259
488 -501 786 -149 183 -165 223 -113 271 84 79 245 110 373 72z m-4311 -1089
c63 1 178 2 255 4 77 2 327 1 555 -2 228 -3 516 0 640 5 197 9 230 8 275 -6
65 -20 121 -69 172 -148 47 -73 306 -533 613 -1088 117 -212 244 -434 282
-493 87 -135 118 -201 118 -251 0 -45 -29 -103 -210 -411 -64 -110 -264 -456
-445 -770 -391 -680 -421 -730 -454 -747 -21 -10 -235 -14 -1116 -16 -599 -2
-1105 0 -1123 3 -52 9 -95 57 -168 183 -37 64 -147 252 -244 417 -520 883
-750 1292 -750 1336 0 38 19 74 182 354 74 127 185 325 248 440 62 116 151
273 198 350 168 276 246 412 313 551 58 120 76 148 123 192 88 80 213 117 351
104 39 -4 122 -7 185 -7z m3991 -1 c30 -9 57 -19 61 -23 6 -5 -650 -1184 -848
-1525 -58 -99 -82 -118 -129 -100 -27 11 -848 1416 -917 1571 -20 46 -17 66
15 81 15 7 302 11 893 11 768 1 877 -1 925 -15z m-4821 -10 c0 -15 -132 -279
-190 -379 -127 -221 -645 -1082 -703 -1169 l-59 -89 -49 49 c-32 33 -94 128
-190 294 -297 513 -506 882 -614 1088 l-113 212 959 0 c527 0 959 -3 959 -6z
m-1941 -504 c276 -462 354 -599 495 -859 76 -140 163 -295 193 -345 31 -50 66
-113 79 -141 32 -67 32 -150 1 -226 -22 -51 -252 -444 -759 -1293 -112 -187
-211 -344 -220 -350 -26 -16 -42 5 -103 142 -113 253 -204 526 -245 736 -22
111 -85 668 -96 841 -7 122 7 327 37 535 27 187 105 573 139 689 54 183 166
460 216 534 l47 71 29 -34 c16 -19 101 -154 187 -300z m7137 233 c313 -574
450 -1466 343 -2232 -56 -402 -191 -847 -355 -1172 -25 -51 -55 -66 -77 -40
-43 48 -768 1294 -912 1565 -60 113 -65 128 -65 184 0 56 6 73 58 175 32 61
133 243 224 402 91 160 254 450 363 645 109 195 207 369 217 385 29 49 142
183 150 179 4 -3 29 -44 54 -91z m-8041 -714 c78 -27 89 -90 47 -279 -35 -161
-43 -281 -43 -605 2 -541 6 -622 46 -819 42 -207 43 -245 13 -281 -30 -33
-113 -48 -233 -43 -192 9 -279 99 -496 519 -129 248 -150 280 -240 375 -100
104 -102 136 -18 231 86 97 165 226 295 483 161 318 208 379 326 422 43 15 73
18 158 15 58 -3 123 -11 145 -18z m8881 -54 c71 -20 163 -91 217 -167 24 -35
83 -139 130 -233 104 -204 196 -360 283 -476 58 -78 64 -91 64 -135 0 -57 -7
-70 -253 -454 -246 -385 -274 -428 -318 -475 -54 -58 -137 -94 -236 -101 -69
-5 -83 -3 -123 18 -36 18 -49 33 -64 70 l-20 48 42 192 c61 281 65 327 65 748
-1 370 -10 561 -39 752 -19 129 -18 171 4 198 33 41 133 47 248 15z m-6706
-1674 c411 -702 670 -1161 670 -1190 0 -8 -250 -11 -961 -11 -791 0 -960 2
-957 13 7 30 963 1666 969 1659 4 -4 129 -216 279 -471z m4745 204 c129 -194
394 -634 544 -903 113 -203 241 -457 241 -478 0 -12 -148 -14 -950 -14 -522 0
-950 3 -950 6 0 3 212 370 472 816 l472 811 29 -34 c16 -19 80 -110 142 -204z
m-6756 -752 c17 -19 59 -109 121 -263 150 -377 208 -492 374 -740 107 -161
355 -512 384 -542 19 -20 26 -42 30 -81 5 -66 -9 -97 -73 -156 -126 -116 -290
-131 -467 -42 -40 20 -210 118 -378 217 -168 99 -329 189 -359 199 -74 24 -94
46 -86 94 3 21 8 249 10 507 3 528 3 526 78 636 76 111 206 196 300 197 29 1
45 -6 66 -26z m8477 -94 c76 -36 136 -99 177 -187 l32 -67 7 -450 c4 -247 11
-486 16 -530 6 -44 9 -81 9 -81 -1 -1 -117 -64 -257 -139 -140 -76 -348 -188
-461 -251 -113 -62 -227 -118 -253 -125 -164 -41 -417 78 -416 195 1 42 13 62
96 153 158 176 284 344 416 556 194 312 335 584 403 777 20 58 43 119 52 136
29 61 74 64 179 13z m-5620 -852 c47 -32 70 -69 379 -617 119 -212 305 -540
414 -729 108 -190 206 -369 218 -398 l22 -53 -122 0 c-401 0 -864 125 -1367
368 -560 272 -1042 658 -1425 1142 -71 89 -205 279 -205 290 0 20 293 27 1136
26 l911 -1 39 -28z m2219 19 c47 -8 69 -17 67 -25 -1 -7 -74 -130 -161 -274
-86 -144 -247 -419 -356 -612 -109 -192 -232 -408 -275 -480 -42 -71 -91 -156
-109 -188 -48 -85 -75 -93 -127 -35 -28 31 -149 233 -459 768 -142 245 -300
515 -351 602 -110 182 -118 221 -54 247 39 16 1737 13 1825 -3z m1555 -1 c239
0 494 3 565 8 122 7 319 -6 337 -22 11 -10 -65 -161 -116 -229 -67 -91 -294
-339 -424 -464 -448 -432 -979 -751 -1572 -945 -153 -50 -451 -125 -585 -147
-171 -29 -425 -47 -425 -30 0 3 128 220 284 482 382 642 483 818 620 1076 64
121 124 228 134 239 40 45 57 47 412 39 184 -4 531 -7 770 -7z m-5346 -1028
c61 -46 174 -134 251 -196 278 -224 532 -374 904 -535 167 -72 334 -159 363
-188 45 -45 5 -183 -80 -278 -89 -101 -200 -134 -442 -133 -91 0 -308 -4 -482
-9 -228 -7 -323 -6 -337 2 -13 6 -76 121 -165 298 -80 158 -181 345 -225 416
-107 172 -125 218 -126 327 0 77 3 91 33 150 32 63 166 229 186 229 5 0 59
-38 120 -83z m5881 -27 c65 -40 127 -191 128 -310 2 -99 -27 -164 -194 -441
-35 -58 -113 -202 -174 -319 -60 -117 -125 -229 -143 -248 l-32 -35 -98 7
c-53 3 -275 9 -492 12 -454 6 -485 11 -584 87 -97 74 -186 207 -186 278 0 65
31 89 204 158 695 275 920 400 1326 735 134 111 170 122 245 76z m-3778 -985
c676 -98 878 -101 1483 -20 117 16 196 22 215 17 44 -12 64 -60 67 -159 2 -75
0 -86 -34 -155 -42 -84 -111 -161 -189 -211 -30 -19 -115 -62 -189 -96 -241
-111 -390 -203 -506 -311 -56 -53 -83 -65 -122 -55 -15 3 -88 44 -162 89 -74
46 -198 121 -275 166 -77 45 -198 117 -270 159 -155 91 -228 159 -276 257 -32
65 -34 74 -34 180 0 105 2 114 24 138 31 33 51 33 268 1z"/>
</g>
</svg>
