<?xml version="1.0" standalone="no"?>
<!DOCTYPE svg PUBLIC "-//W3C//DTD SVG 20010904//EN"
 "http://www.w3.org/TR/2001/REC-SVG-20010904/DTD/svg10.dtd">
<svg version="1.0" xmlns="http://www.w3.org/2000/svg"
 width="2000.000000pt" height="1928.000000pt" viewBox="0 0 2000.000000 1928.000000"
 preserveAspectRatio="xMidYMid meet">

<g transform="translate(0.000000,1928.000000) scale(0.100000,-0.100000)"
fill="#000000" stroke="none">
<path d="M8440 19265 c-83 -19 -193 -72 -266 -127 -268 -201 -344 -594 -172
-886 48 -82 170 -201 253 -248 136 -75 336 -110 412 -71 116 61 117 233 0 294
-17 8 -64 19 -104 24 -40 4 -93 17 -118 28 -63 28 -140 104 -172 170 -24 48
-28 68 -28 146 0 82 3 97 33 157 132 268 510 258 655 -17 l32 -60 3 -1487 2
-1488 -420 0 -420 0 0 -420 0 -420 -390 0 -390 0 0 -419 c0 -323 -3 -421 -12
-429 -16 -13 -447 -192 -463 -192 -6 0 -173 204 -370 453 -198 248 -454 571
-570 717 -116 146 -377 474 -580 730 -661 832 -1251 1576 -1618 2037 -298 376
-362 451 -375 443 -22 -12 -301 -248 -422 -357 -261 -235 -760 -736 -760 -763
0 -4 141 -139 313 -301 171 -162 861 -812 1532 -1444 1966 -1852 2219 -2091
2232 -2106 10 -12 -25 -49 -195 -211 l-207 -197 -567 -1 -568 0 -2 -472 -3
-473 -438 -3 -437 -2 0 -335 0 -335 -1613 2 -1612 3 -66 32 c-81 40 -140 102
-182 191 -28 59 -32 77 -32 152 0 71 5 95 27 142 35 75 98 141 167 175 49 24
68 28 146 28 116 0 171 -21 247 -92 67 -65 96 -126 107 -228 14 -124 60 -176
158 -182 188 -12 233 197 101 467 -58 120 -178 240 -298 298 -114 56 -194 75
-310 75 -290 0 -545 -183 -644 -462 -28 -78 -31 -97 -31 -211 0 -143 15 -213
71 -326 68 -137 182 -252 319 -320 150 -74 -4 -68 1812 -71 l1633 -4 0 -289 0
-290 -1632 -3 c-1826 -3 -1661 4 -1824 -76 -300 -149 -457 -529 -350 -846 138
-404 589 -585 971 -387 96 49 228 181 277 277 73 140 101 319 64 398 -27 55
-69 81 -141 85 -50 3 -66 0 -94 -20 -50 -33 -72 -78 -82 -165 -15 -135 -86
-239 -199 -292 -47 -22 -69 -26 -150 -26 -85 0 -101 3 -153 29 -71 36 -130 99
-165 174 -22 47 -27 71 -27 142 0 75 4 93 32 152 42 89 101 151 182 191 l66
32 1612 3 1613 2 0 -485 0 -485 440 0 440 0 0 -330 0 -330 443 0 443 0 174
-302 c96 -165 180 -311 187 -323 11 -21 -98 -116 -2147 -1856 -1187 -1009
-2159 -1839 -2159 -1845 -2 -22 468 -589 487 -589 4 0 1032 971 2284 2159
l2277 2158 -68 102 c-383 572 -612 1267 -638 1938 l-6 158 -271 2 -271 3 0
425 0 425 325 3 325 2 24 85 c32 116 131 359 197 485 310 586 818 1014 1474
1241 367 128 693 183 1203 205 l147 6 0 269 0 269 425 0 425 0 0 -343 0 -343
58 -18 c172 -55 418 -181 591 -304 111 -79 296 -253 383 -361 283 -350 428
-770 428 -1234 -1 -390 -101 -728 -308 -1038 -224 -334 -554 -555 -957 -640
-125 -26 -407 -37 -547 -20 -190 22 -445 84 -565 137 -215 95 -384 296 -413
490 -25 164 35 319 180 466 104 105 171 140 373 194 340 91 448 139 565 249
88 83 134 154 157 240 19 75 19 115 0 190 -58 220 -273 445 -574 599 -124 63
-235 98 -406 128 -103 17 -149 19 -320 15 -171 -4 -214 -8 -300 -30 -328 -84
-586 -238 -862 -515 -292 -293 -482 -647 -570 -1060 -26 -119 -27 -143 -28
-387 0 -232 2 -273 23 -375 168 -842 757 -1510 1612 -1828 135 -50 312 -105
382 -117 l38 -7 2 -522 3 -521 682 -3 683 -2 2 492 3 493 60 8 c33 4 121 19
195 33 960 181 1795 681 2300 1379 172 238 332 557 405 808 l16 57 490 0 489
0 0 700 0 700 -490 0 -490 0 0 628 0 627 -77 263 c-75 254 -79 265 -126 323
-27 34 -45 64 -41 68 5 5 92 80 194 167 193 167 1996 1722 2705 2334 226 194
679 585 1008 869 328 283 597 517 597 521 0 3 -62 75 -137 160 -174 197 -654
678 -842 844 l-144 127 -44 -43 c-25 -24 -239 -241 -476 -483 -237 -242 -564
-575 -727 -740 -286 -290 -841 -855 -1919 -1955 -283 -289 -625 -636 -760
-771 l-246 -247 -95 -6 c-52 -4 -119 -9 -147 -13 l-53 -6 0 607 0 606 -480 0
-480 0 0 380 0 380 -395 0 -395 0 1 973 c1 534 4 1206 8 1492 l6 520 25 50
c54 112 184 200 312 212 268 25 463 -255 348 -499 -53 -114 -156 -183 -295
-199 -92 -10 -138 -35 -166 -92 -49 -95 7 -212 112 -236 53 -12 180 6 268 38
332 121 513 470 425 816 -29 111 -89 212 -183 305 -98 98 -186 147 -315 180
-310 78 -661 -86 -801 -375 -70 -145 -66 -39 -72 -1692 l-6 -1493 -288 0 -289
0 -2 1508 -3 1507 -28 80 c-39 110 -104 210 -185 286 -85 80 -157 123 -269
162 -108 37 -266 46 -373 22z"/>
<path d="M17145 16044 c-346 -284 -1254 -1024 -2017 -1646 -764 -622 -1388
-1134 -1388 -1137 0 -4 73 -146 163 -316 l163 -310 462 -3 462 -2 0 -535 0
-535 430 0 430 0 0 -275 0 -275 1655 0 c1159 0 1669 3 1705 11 71 15 165 81
211 148 130 191 70 448 -125 540 -66 31 -147 42 -213 30 -166 -31 -274 -151
-294 -325 -4 -40 -15 -86 -23 -103 -35 -67 -133 -99 -207 -68 -20 8 -49 32
-65 53 -27 35 -29 43 -28 128 2 296 228 564 531 632 108 24 253 16 358 -20
111 -38 188 -87 272 -173 208 -211 251 -529 110 -800 -71 -136 -178 -242 -312
-308 -146 -72 -4 -67 -1882 -72 l-1693 -5 0 -288 0 -288 1693 -5 c1881 -5
1730 1 1882 -72 170 -81 311 -251 370 -445 26 -86 31 -242 11 -334 -52 -231
-220 -420 -448 -504 -67 -24 -86 -26 -218 -26 -134 0 -150 2 -218 28 -190 71
-319 190 -402 368 -56 119 -76 277 -44 345 40 83 149 117 228 71 54 -31 77
-75 86 -162 13 -139 84 -241 205 -298 158 -73 355 -14 443 132 43 73 55 119
50 210 -6 140 -89 265 -216 327 l-57 28 -1682 3 -1683 2 0 -565 0 -565 -430 0
-430 0 0 -315 0 -315 -612 -2 -612 -3 -199 -354 c-137 -243 -197 -358 -191
-367 19 -29 4206 -3644 4214 -3639 5 3 62 72 127 153 1365 1690 2143 3713
2263 5882 13 234 13 872 0 1095 -98 1706 -583 3287 -1448 4725 -226 375 -700
1051 -742 1057 -8 1 -298 -230 -645 -513z"/>
<path d="M6349 6492 c-317 -394 -1173 -1459 -1903 -2367 -729 -907 -1326
-1654 -1326 -1660 1 -5 56 -55 123 -111 1594 -1318 3530 -2120 5577 -2308 599
-55 1288 -55 1890 -1 2045 187 3994 993 5577 2307 253 210 477 412 471 427 -1
5 -507 576 -1123 1268 -616 692 -1432 1609 -1814 2038 -381 429 -706 793 -721
808 l-27 28 -369 -166 c-203 -92 -451 -203 -551 -248 l-183 -82 0 -452 0 -453
-515 0 -515 0 0 -485 0 -485 -475 0 -475 0 2 -1377 3 -1378 23 -58 c15 -36 43
-77 75 -111 191 -194 495 -148 605 92 21 46 26 72 26 137 0 69 -4 90 -31 147
-57 121 -161 194 -293 205 -85 7 -137 35 -167 88 -45 80 -15 179 68 223 40 21
52 23 124 17 163 -14 308 -80 425 -195 181 -178 249 -447 173 -685 -50 -158
-188 -325 -328 -397 -146 -76 -331 -99 -484 -62 -207 50 -397 205 -483 392
-58 128 -56 68 -64 1575 l-7 1387 -288 0 -289 0 0 -1352 c0 -831 -4 -1379 -10
-1421 -32 -223 -175 -418 -380 -521 -121 -61 -212 -80 -353 -74 -185 8 -312
64 -447 198 -211 209 -259 518 -123 790 53 106 179 231 288 287 91 47 170 70
270 78 61 6 76 3 115 -17 114 -59 124 -203 19 -281 -17 -12 -54 -22 -103 -28
-139 -15 -249 -87 -303 -198 -25 -50 -28 -67 -28 -156 0 -86 4 -107 25 -150
68 -139 229 -223 378 -196 127 24 238 106 293 218 l24 48 3 1388 2 1387 -200
0 -200 0 -2 483 -3 482 -482 3 -483 2 0 698 0 699 -220 146 c-121 81 -223 147
-227 147 -5 0 -267 -323 -584 -718z"/>
</g>
</svg>
