<?xml version="1.0" standalone="no"?>
<!DOCTYPE svg PUBLIC "-//W3C//DTD SVG 20010904//EN"
 "http://www.w3.org/TR/2001/REC-SVG-20010904/DTD/svg10.dtd">
<svg version="1.0" xmlns="http://www.w3.org/2000/svg"
 width="500.000000pt" height="500.000000pt" viewBox="0 0 500.000000 500.000000"
 preserveAspectRatio="xMidYMid meet">

<g transform="translate(0.000000,500.000000) scale(0.100000,-0.100000)"
fill="#000000" stroke="none">
<path d="M2000 4710 l0 -100 500 0 500 0 0 100 0 100 -500 0 -500 0 0 -100z"/>
<path d="M862 4137 l-352 -352 73 -73 72 -72 353 353 352 352 -73 73 -72 72
-353 -353z"/>
<path d="M3710 4415 l-75 -75 145 -145 145 -145 75 75 75 75 -145 145 -145
145 -75 -75z"/>
<path d="M2000 4375 l0 -105 500 0 500 0 0 105 0 105 -500 0 -500 0 0 -105z"/>
<path d="M1112 3887 l-352 -352 73 -73 72 -72 353 353 352 352 -73 73 -72 72
-353 -353z"/>
<path d="M3460 4165 l-75 -75 353 -353 352 -352 75 75 75 75 -353 353 -352
352 -75 -75z"/>
<path d="M2000 4045 l0 -105 500 0 500 0 0 105 0 105 -500 0 -500 0 0 -105z"/>
<path d="M4122 3997 l-72 -72 145 -145 145 -145 75 75 75 75 -142 142 c-79 79
-145 143 -148 143 -3 0 -38 -33 -78 -73z"/>
<path d="M1570 3845 l-145 -145 73 -72 72 -73 145 145 145 145 -73 73 -72 72
-145 -145z"/>
<path d="M3210 3915 l-75 -75 353 -353 352 -352 75 75 75 75 -353 353 -352
352 -75 -75z"/>
<path d="M1152 3427 l-142 -142 73 -73 72 -72 145 145 145 145 -70 70 c-38 38
-72 70 -75 70 -3 0 -69 -64 -148 -143z"/>
<path d="M190 2795 l0 -205 100 0 100 0 0 205 0 205 -100 0 -100 0 0 -205z"/>
<path d="M520 2500 l0 -500 105 0 105 0 0 500 0 500 -105 0 -105 0 0 -500z"/>
<path d="M850 2795 l0 -205 105 0 105 0 0 205 0 205 -105 0 -105 0 0 -205z"/>
<path d="M3940 2500 l0 -500 100 0 100 0 0 500 0 500 -100 0 -100 0 0 -500z"/>
<path d="M4270 2795 l0 -205 105 0 105 0 0 205 0 205 -105 0 -105 0 0 -205z"/>
<path d="M4600 2500 l0 -500 105 0 105 0 0 500 0 500 -105 0 -105 0 0 -500z"/>
<path d="M190 2210 l0 -210 100 0 100 0 0 210 0 210 -100 0 -100 0 0 -210z"/>
<path d="M850 2210 l0 -210 105 0 105 0 0 210 0 210 -105 0 -105 0 0 -210z"/>
<path d="M4270 2210 l0 -210 105 0 105 0 0 210 0 210 -105 0 -105 0 0 -210z"/>
<path d="M1085 1790 l-70 -70 353 -353 352 -352 72 73 73 72 -350 350 c-192
193 -352 350 -355 350 -3 0 -37 -32 -75 -70z"/>
<path d="M3692 1717 l-142 -142 75 -75 75 -75 145 145 145 145 -72 72 c-40 40
-75 73 -78 73 -3 0 -69 -64 -148 -143z"/>
<path d="M835 1540 l-70 -70 145 -145 145 -145 72 72 73 73 -142 142 c-79 79
-145 143 -148 143 -3 0 -37 -32 -75 -70z"/>
<path d="M3942 1467 l-142 -142 75 -75 75 -75 145 145 145 145 -72 72 c-40 40
-75 73 -78 73 -3 0 -69 -64 -148 -143z"/>
<path d="M3280 1305 l-145 -145 75 -75 75 -75 145 145 145 145 -75 75 -75 75
-145 -145z"/>
<path d="M585 1290 l-70 -70 145 -145 145 -145 72 72 73 73 -142 142 c-79 79
-145 143 -148 143 -3 0 -37 -32 -75 -70z"/>
<path d="M3985 1010 l-350 -350 75 -75 75 -75 352 352 353 353 -72 72 c-40 40
-75 73 -78 73 -3 0 -163 -157 -355 -350z"/>
<path d="M1252 1127 l-72 -72 145 -145 145 -145 72 73 73 72 -145 145 -145
145 -73 -73z"/>
<path d="M3530 1055 l-145 -145 75 -75 75 -75 145 145 145 145 -75 75 -75 75
-145 -145z"/>
<path d="M2000 960 l0 -100 205 0 205 0 0 100 0 100 -205 0 -205 0 0 -100z"/>
<path d="M2580 960 l0 -100 210 0 210 0 0 100 0 100 -210 0 -210 0 0 -100z"/>
<path d="M1002 877 l-72 -72 145 -145 145 -145 72 73 73 72 -145 145 -145 145
-73 -73z"/>
<path d="M2000 625 l0 -105 205 0 205 0 0 105 0 105 -205 0 -205 0 0 -105z"/>
<path d="M2580 625 l0 -105 210 0 210 0 0 105 0 105 -210 0 -210 0 0 -105z"/>
<path d="M2000 295 l0 -105 205 0 205 0 0 105 0 105 -205 0 -205 0 0 -105z"/>
<path d="M2580 295 l0 -105 210 0 210 0 0 105 0 105 -210 0 -210 0 0 -105z"/>
</g>
</svg>
