<?xml version="1.0" standalone="no"?>
<!DOCTYPE svg PUBLIC "-//W3C//DTD SVG 20010904//EN"
 "http://www.w3.org/TR/2001/REC-SVG-20010904/DTD/svg10.dtd">
<svg version="1.0" xmlns="http://www.w3.org/2000/svg"
 width="840.000000pt" height="680.000000pt" viewBox="0 0 840.000000 680.000000"
 preserveAspectRatio="xMidYMid meet">

<g transform="translate(0.000000,680.000000) scale(0.100000,-0.100000)"
fill="#000000" stroke="none">
<path d="M3990 6274 c-237 -20 -402 -48 -595 -100 -665 -182 -1242 -598 -1622
-1169 -235 -353 -383 -749 -449 -1200 -28 -188 -26 -562 5 -765 77 -511 260
-949 565 -1353 420 -557 1050 -957 1735 -1101 215 -46 357 -60 611 -60 307 0
523 30 801 110 650 187 1214 600 1586 1159 235 353 383 749 449 1200 28 184
26 561 -4 761 -75 507 -261 954 -566 1357 -474 627 -1194 1043 -1977 1142
-120 15 -448 27 -539 19z m480 -89 c329 -38 638 -127 930 -268 87 -42 119 -61
105 -65 -30 -6 -45 -22 -45 -46 0 -28 18 -46 45 -46 41 0 61 49 33 80 -21 22
100 -47 217 -125 550 -366 964 -925 1150 -1554 78 -262 105 -433 112 -712 6
-232 -4 -396 -37 -579 -161 -891 -760 -1655 -1588 -2025 -567 -253 -1226 -313
-1826 -165 -998 245 -1790 998 -2075 1972 -85 291 -106 448 -106 788 0 358 28
546 126 846 298 917 1039 1604 1982 1834 108 27 331 64 442 73 116 10 413 5
535 -8z"/>
<path d="M4178 6079 c-25 -14 -23 -65 2 -79 48 -26 91 30 55 70 -20 22 -32 24
-57 9z"/>
<path d="M3993 5909 c-798 -57 -1536 -507 -1947 -1188 -163 -269 -269 -554
-328 -878 -20 -113 -23 -159 -23 -403 0 -280 7 -358 51 -550 165 -731 649
-1354 1316 -1696 573 -293 1221 -358 1838 -184 673 190 1224 642 1540 1262
173 338 256 668 267 1063 4 168 2 226 -16 361 -61 475 -249 917 -545 1284 -81
101 -272 291 -376 374 -406 326 -882 513 -1414 556 -142 11 -197 11 -363 -1z
m182 -60 c-30 -93 -352 -897 -360 -897 -5 -1 -165 140 -354 311 -188 172 -353
320 -365 329 -21 17 -20 18 64 56 282 130 647 214 958 221 60 1 63 0 57 -20z
m300 0 c255 -27 568 -120 797 -235 l71 -36 -24 -23 c-13 -13 -184 -161 -378
-329 -265 -228 -357 -303 -363 -292 -6 11 -274 733 -334 899 l-14 39 78 -7
c42 -3 118 -10 167 -16z m-282 -683 l-8 -560 -172 157 -171 156 89 228 c266
676 264 672 267 623 1 -25 -1 -297 -5 -604z m212 149 c81 -220 148 -405 149
-411 0 -6 -73 -75 -164 -154 l-165 -144 -3 575 c-1 316 1 581 4 589 4 10 10 4
19 -20 7 -19 79 -215 160 -435z m-1371 243 c6 -26 92 -767 102 -875 l7 -72
-34 9 c-19 6 -230 62 -469 126 -239 64 -437 118 -439 120 -7 6 152 195 234
278 96 98 219 202 333 281 89 61 242 155 254 155 4 0 10 -10 12 -22z m339
-583 c259 -504 256 -498 236 -490 -8 2 -106 30 -219 60 -112 30 -207 58 -211
63 -3 4 -29 212 -58 462 -29 250 -54 466 -57 480 -6 35 38 -48 309 -575z
m1949 513 c-17 -29 -150 -273 -297 -543 -146 -269 -267 -491 -269 -492 -6 -6
-157 419 -154 432 2 12 735 654 746 655 2 0 -10 -24 -26 -52z m214 -26 c242
-159 458 -359 621 -576 45 -61 81 -111 80 -112 -6 -6 -969 -216 -972 -212 -4
4 122 940 130 966 3 6 8 12 13 12 5 0 62 -35 128 -78z m-2038 -271 c171 -156
310 -286 308 -289 -2 -4 -36 -90 -76 -192 -39 -102 -74 -188 -78 -192 -7 -7
-116 200 -427 807 -97 188 -104 207 -74 179 19 -17 175 -158 347 -313z m1797
-171 c-35 -254 -67 -465 -70 -468 -6 -6 -428 -103 -432 -99 -1 2 125 235 279
520 155 284 283 515 285 513 2 -1 -26 -211 -62 -466z m-1215 -357 l65 -62 -47
-1 c-69 0 -234 -34 -333 -68 -49 -17 -84 -25 -82 -19 38 97 135 347 140 361 6
15 21 6 99 -65 51 -46 122 -112 158 -146z m564 3 c37 -98 65 -180 63 -182 -2
-2 -41 11 -88 30 -46 19 -131 44 -189 56 -58 12 -118 25 -134 29 -29 6 -26 9
119 134 81 71 151 125 155 120 5 -4 38 -89 74 -187z m-2191 -260 c221 -332
273 -416 259 -420 -101 -28 -943 -208 -949 -203 -13 13 45 271 93 416 49 148
184 432 261 549 26 39 50 72 53 72 4 0 131 -186 283 -414z m265 291 c232 -63
425 -116 427 -119 6 -6 56 -420 52 -424 -2 -3 -869 605 -932 653 -19 15 -19
15 5 9 14 -3 215 -57 448 -119z m22 -260 c250 -176 457 -322 459 -324 14 -11
-36 -27 -227 -69 -116 -26 -214 -45 -216 -43 -2 2 -122 182 -266 399 -186 279
-254 389 -234 375 16 -10 234 -162 484 -338z m2947 -33 c-269 -179 -490 -324
-492 -322 -1 2 12 102 29 223 l31 220 450 101 c248 56 454 103 460 103 5 1
-210 -146 -478 -325z m642 226 c104 -177 207 -427 260 -637 21 -83 63 -314 58
-320 -2 -1 -147 36 -323 83 -175 47 -389 104 -475 127 -86 23 -158 45 -160 49
-5 8 562 798 573 798 4 0 34 -45 67 -100z m-135 68 c-6 -10 -527 -739 -541
-757 -3 -4 -425 108 -431 114 -4 3 968 655 976 655 2 0 0 -6 -4 -12z m-2817
-178 c103 -28 194 -53 202 -56 9 -3 -15 -24 -63 -55 -43 -27 -124 -95 -181
-150 -95 -93 -105 -99 -109 -78 -5 21 -46 366 -46 383 0 9 -8 10 197 -44z
m728 -16 c-27 -25 -69 -61 -92 -81 l-42 -34 -118 31 c-65 17 -122 35 -126 39
-11 11 137 58 233 76 41 7 102 13 135 14 l60 0 -50 -45z m320 19 c75 -16 255
-81 255 -92 0 -7 -194 -51 -224 -51 -18 0 -33 12 -156 123 l-54 49 54 -7 c30
-4 87 -14 125 -22z m-254 -103 c-5 -40 -12 -74 -14 -76 -8 -8 -138 32 -135 41
2 6 37 40 78 76 85 76 87 75 71 -41z m150 28 c43 -40 79 -76 79 -79 0 -3 -26
-11 -57 -18 -32 -7 -65 -15 -75 -17 -12 -4 -17 4 -22 33 -13 88 -18 153 -11
153 3 0 42 -33 86 -72z m873 -154 l-28 -205 -25 33 c-55 71 -160 173 -245 237
-48 36 -82 67 -75 69 8 1 100 22 204 46 105 24 192 39 194 34 1 -5 -10 -101
-25 -214z m-1483 -3 c10 -30 19 -60 19 -66 0 -13 -157 -51 -167 -41 -4 3 15
61 42 128 l48 122 20 -44 c10 -25 28 -69 38 -99z m131 103 c49 -13 92 -24 95
-24 10 0 -38 -48 -79 -81 l-37 -30 -49 73 c-70 105 -68 101 -42 93 12 -4 62
-18 112 -31z m-275 -103 c-25 -62 -48 -116 -53 -120 -11 -11 -246 -63 -252
-56 -10 10 188 194 262 243 43 29 80 51 83 49 2 -2 -16 -55 -40 -116z m1107
25 c-33 -47 -62 -86 -67 -86 -4 0 -36 27 -72 60 -58 54 -62 60 -42 65 110 26
233 52 236 49 1 -1 -23 -41 -55 -88z m233 -28 c66 -52 197 -188 189 -196 -6
-5 -207 46 -223 57 -10 6 -83 193 -83 212 0 14 35 -8 117 -73z m-834 45 c37
-10 67 -20 67 -23 0 -6 -282 -71 -287 -66 -6 6 121 106 135 106 10 0 47 -8 85
-17z m425 -48 l57 -54 -90 24 c-50 14 -110 31 -135 38 l-45 13 60 16 c33 9 68
16 78 17 10 1 44 -24 75 -54z m299 -35 c18 -49 29 -90 26 -90 -4 0 -33 7 -65
16 -46 13 -58 20 -53 33 30 82 51 131 55 131 3 0 20 -40 37 -90z m-1000 -16
c-5 -6 -47 59 -47 72 0 5 12 -9 26 -29 14 -21 24 -41 21 -43z m353 31 c0 -22
-51 -409 -54 -412 -2 -2 -56 76 -120 173 -65 97 -115 179 -111 182 5 6 244 66
278 71 4 1 7 -6 7 -14z m38 -407 l-3 -143 -32 50 -32 50 29 220 c16 121 30
227 32 235 4 27 9 -267 6 -412z m67 160 l26 -247 -27 -41 c-15 -22 -28 -40
-30 -40 -2 0 -4 134 -3 298 0 163 2 293 4 287 2 -5 16 -121 30 -257z m183 216
c91 -24 141 -42 138 -49 -8 -21 -258 -365 -265 -365 -7 0 -52 386 -51 438 0
18 4 22 18 18 9 -3 81 -22 160 -42z m247 1 c-9 -20 -18 -35 -21 -32 -3 2 3 21
12 41 23 47 29 40 9 -9z m-726 -234 l133 -199 -9 -64 -8 -63 -133 256 c-72
142 -132 260 -132 263 0 24 34 -19 149 -193z m-316 102 c-49 -42 -99 -87 -113
-99 -44 -40 -54 -17 -24 57 14 35 30 69 35 74 10 10 136 42 172 44 10 1 -21
-32 -70 -76z m187 -143 c38 -106 69 -195 67 -196 -1 -2 -183 98 -350 192 -17
10 -5 22 94 107 62 54 114 96 115 94 2 -2 35 -90 74 -197z m803 147 c-9 -23
-49 -123 -89 -221 l-71 -179 -57 -29 c-31 -16 -56 -25 -56 -22 0 7 199 377
247 462 31 53 48 46 26 -11z m151 35 l59 -17 28 -75 c16 -41 28 -78 27 -82 -2
-4 -50 38 -108 92 -113 106 -113 112 -6 82z m-870 -217 c64 -124 116 -228 116
-230 0 -9 -76 33 -87 47 -5 7 -29 67 -53 133 -23 66 -55 155 -71 198 -16 42
-27 77 -25 77 3 0 56 -101 120 -225z m-414 200 c0 -6 -41 -109 -45 -113 -2 -2
-33 13 -70 33 -36 21 -63 40 -60 44 13 13 175 47 175 36z m1048 -57 c-19 -35
-77 -141 -129 -236 l-94 -173 -8 50 -8 51 133 185 c73 102 134 185 136 185 2
0 -12 -28 -30 -62z m241 -45 c58 -53 107 -100 109 -104 3 -7 -362 -189 -379
-189 -4 0 22 73 58 163 89 223 91 227 99 227 3 0 54 -44 113 -97z m223 56 c62
-16 115 -32 118 -35 7 -8 -24 -29 -106 -71 -40 -21 -76 -35 -79 -31 -5 5 -65
157 -65 166 0 6 27 0 132 -29z m-1662 -91 c63 -58 71 -69 60 -83 -24 -29 -131
-118 -136 -113 -5 5 -34 236 -34 271 0 23 11 16 110 -75z m-219 11 c-41 -74
-84 -180 -106 -264 -10 -38 -21 -74 -25 -78 -6 -6 -205 281 -212 307 -3 8 362
97 370 91 2 -2 -10 -27 -27 -56z m98 -87 c18 -165 24 -148 -85 -242 -52 -45
-97 -80 -100 -77 -7 6 22 134 45 197 42 120 108 247 121 233 4 -4 12 -54 19
-111z m2195 57 c105 -28 194 -53 198 -55 7 -5 -231 -344 -242 -344 -3 0 -11
29 -18 65 -18 94 -49 185 -102 291 -25 52 -41 94 -36 94 5 0 95 -23 200 -51z
m-288 -94 c-8 -53 -18 -100 -21 -103 -3 -3 -28 16 -55 43 l-49 50 67 57 c37
31 68 55 70 53 1 -1 -4 -46 -12 -100z m-2263 -95 c65 -96 114 -176 110 -177
-10 -4 -1164 145 -1170 150 -6 6 891 205 917 204 20 -2 46 -34 143 -177z
m2158 140 c-24 -22 -48 -37 -53 -34 -8 5 77 73 92 73 3 0 -15 -18 -39 -39z
m188 -17 c51 -102 122 -324 103 -323 -4 1 -45 36 -91 79 l-85 78 13 104 c13
100 17 119 26 119 3 0 18 -26 34 -57z m-1501 -74 l201 -110 15 -46 c9 -26 15
-47 13 -49 -1 -1 -279 192 -432 302 -56 40 24 2 203 -97z m85 -142 c93 -65
166 -121 163 -124 -2 -3 -31 -2 -63 2 l-59 6 -174 160 c-96 88 -182 168 -190
176 -17 19 86 -52 323 -220z m2303 98 c235 -63 429 -116 431 -119 2 -2 -47 -9
-109 -15 -62 -7 -318 -34 -568 -61 -250 -26 -456 -48 -456 -47 -6 6 254 357
263 357 7 0 205 -52 439 -115z m-2481 -51 c94 -86 172 -158 175 -161 4 -4
-472 7 -477 11 -1 1 21 60 48 131 28 72 55 140 60 153 5 12 12 22 16 22 5 0
85 -70 178 -156z m1279 78 c-21 -19 -103 -88 -180 -153 -150 -126 -155 -128
-238 -110 -27 6 -12 18 209 164 154 102 241 154 244 146 2 -7 -14 -28 -35 -47z
m-69 29 c-19 -17 -375 -251 -375 -246 0 2 8 23 17 46 16 41 21 45 187 125 177
86 186 90 171 75z m-1466 -53 c-12 -29 -33 -84 -47 -123 l-27 -70 -7 45 c-15
99 -11 111 45 158 28 23 52 42 54 42 1 0 -7 -24 -18 -52z m1686 -6 l58 -53 -7
-62 c-14 -133 -17 -132 -71 19 -28 75 -52 142 -54 147 -7 18 16 2 74 -51z
m-46 -105 c28 -75 51 -140 51 -142 0 -6 -186 -4 -322 4 l-106 6 161 136 c89
75 163 136 163 135 1 0 24 -63 53 -139z m-853 29 c30 -46 34 -57 24 -76 l-11
-21 -32 20 c-18 11 -32 27 -31 36 0 8 1 33 2 55 1 22 4 40 7 40 3 0 21 -24 41
-54z m-1956 -211 c234 -129 431 -238 439 -242 10 -6 -90 -99 -364 -336 -208
-180 -382 -327 -386 -327 -10 0 -65 178 -94 305 -40 178 -58 334 -59 535 -1
199 8 300 27 300 7 0 203 -106 437 -235z m1059 138 l1 -43 -82 0 c-93 0 -94
-6 7 79 57 48 60 50 67 28 3 -12 6 -41 7 -64z m1033 34 c5 -39 2 -49 -13 -57
-15 -8 -22 -5 -35 15 -16 24 -15 27 11 61 15 19 28 34 30 32 1 -2 5 -25 7 -51z
m-1847 -26 c588 -76 545 -69 545 -89 -1 -15 -285 -271 -311 -280 -9 -4 -775
412 -794 431 -12 12 -30 14 560 -62z m2818 -47 c31 -29 57 -55 57 -57 0 -9
-147 -18 -174 -11 -28 7 -28 8 -22 63 4 31 9 68 12 84 l6 27 31 -26 c18 -15
58 -51 90 -80z m-1233 61 c38 -24 42 -29 36 -58 -8 -40 -11 -42 -41 -29 -24
11 -41 40 -60 101 -9 28 1 26 65 -14z m402 -51 c-19 -47 -22 -49 -61 -52 -39
-3 -41 -2 -41 25 0 25 7 32 58 54 31 14 58 25 60 24 1 -1 -6 -24 -16 -51z
m1748 -179 c-234 -118 -431 -214 -438 -214 -15 -1 -343 291 -335 299 4 5 1125
127 1173 128 14 1 -166 -95 -400 -213z m476 159 c14 -74 -3 -463 -25 -589 -32
-180 -105 -439 -131 -469 -5 -4 -174 142 -376 325 l-368 334 440 217 c241 119
442 217 446 217 4 1 10 -15 14 -35z m-2506 1 c0 -15 -21 -12 -30 5 -11 20 -10
21 9 10 12 -6 21 -13 21 -15z m-967 -64 c72 -21 75 -30 35 -120 l-23 -53 -68
102 -68 102 30 -7 c17 -4 59 -15 94 -24z m682 -12 l30 -29 -30 5 c-16 3 -120
16 -230 30 -110 14 -207 27 -215 30 -8 2 82 2 200 -1 l215 -5 30 -30z m122 18
c1 -1 4 -14 8 -30 6 -24 4 -27 -16 -27 -22 1 -89 51 -89 66 0 5 91 -4 97 -9z
m-877 -102 c38 -57 70 -109 70 -114 0 -15 -80 -214 -90 -224 -17 -18 -53 176
-58 311 -2 72 -2 132 1 132 4 0 38 -47 77 -105z m535 60 c153 -20 281 -37 283
-40 2 -2 -23 -17 -56 -34 l-59 -30 -251 68 c-138 37 -255 71 -259 75 -4 5 8 6
27 3 19 -4 161 -22 315 -42z m403 23 c-5 -15 -23 -11 -26 6 -2 11 2 14 13 10
9 -4 14 -11 13 -16z m140 -19 l-3 -24 -13 23 c-7 12 -10 27 -6 33 10 17 26 -6
22 -32z m56 32 c3 -5 -3 -20 -14 -32 -15 -19 -19 -21 -20 -7 0 37 21 61 34 39z
m272 -36 c-44 -39 -53 -41 -84 -19 -18 12 -20 19 -12 35 9 16 21 19 73 19 l62
-1 -39 -34z m-220 14 c4 -7 -4 -20 -17 -30 -29 -22 -33 -19 -18 15 13 28 24
33 35 15z m624 3 c37 -6 14 -11 -130 -25 -96 -10 -195 -21 -220 -24 l-45 -6
29 32 30 31 145 -1 c80 0 166 -4 191 -7z m-1910 -325 c12 -55 20 -100 18 -102
-6 -7 -318 170 -315 179 2 5 61 59 132 121 l130 113 7 -107 c4 -58 17 -150 28
-204z m742 190 c11 -4 -384 -207 -403 -207 -5 0 -39 272 -39 311 0 13 37 6
215 -42 118 -31 220 -59 227 -62z m1433 113 c-16 -4 -41 -8 -55 -8 -23 -1 -23
0 -5 8 11 5 36 8 55 8 l35 0 -30 -8z m-107 -12 c-3 -7 -102 -33 -229 -61
l-224 -48 -52 28 c-29 15 -48 30 -43 31 10 4 494 59 533 61 11 1 17 -4 15 -11z
m201 -45 c-22 -32 -53 -75 -67 -96 -21 -32 -27 -35 -34 -22 -13 22 -49 128
-45 131 3 3 163 41 180 43 4 1 -11 -25 -34 -56z m-1985 -85 c9 -69 16 -134 16
-145 0 -17 -90 107 -90 124 0 10 54 153 57 150 1 -1 9 -59 17 -129z m831 122
c3 -5 -1 -10 -9 -10 -9 0 -16 5 -16 10 0 6 4 10 9 10 6 0 13 -4 16 -10z m245
0 c0 -5 -2 -10 -4 -10 -3 0 -8 5 -11 10 -3 6 -1 10 4 10 6 0 11 -4 11 -10z
m1188 -133 c78 -71 142 -133 142 -136 0 -5 -363 -191 -374 -191 -1 0 7 36 20
80 27 94 44 215 44 318 0 56 3 71 13 66 6 -4 76 -66 155 -137z m-1238 114 c0
-9 -24 -21 -42 -21 -6 0 -6 6 2 15 14 16 40 20 40 6z m1018 -108 c-5 -112 -41
-303 -57 -303 -3 0 -24 51 -46 113 l-39 114 69 96 c37 54 70 97 73 97 3 0 2
-53 0 -117z m-1318 91 c0 -14 -3 -14 -15 -4 -8 7 -15 14 -15 16 0 2 7 4 15 4
8 0 15 -7 15 -16z m131 -4 c34 0 20 -18 -28 -34 -26 -9 -48 -16 -50 -16 -2 0
-3 14 -3 31 0 30 2 31 31 25 17 -3 40 -6 50 -6z m-166 -20 c15 -17 16 -22 4
-37 -7 -10 -14 -19 -15 -21 -2 -3 -75 14 -104 24 -10 4 0 13 30 29 55 30 62
30 85 5z m1082 -17 c-4 -21 -11 -79 -18 -129 -6 -50 -15 -97 -19 -104 -5 -9
-57 15 -184 85 -97 54 -174 100 -171 103 7 7 343 80 374 81 22 1 23 -2 18 -36z
m-647 23 c0 -3 -4 -8 -10 -11 -5 -3 -10 -1 -10 4 0 6 5 11 10 11 6 0 10 -2 10
-4z m146 -53 c-2 -3 -29 -10 -60 -17 -54 -13 -57 -13 -72 8 -14 19 -13 23 11
44 l27 22 49 -26 c27 -15 47 -29 45 -31z m569 -18 l27 -75 -47 -66 c-26 -36
-49 -64 -51 -62 -6 6 33 278 40 278 2 0 16 -34 31 -75z m-815 49 c0 -11 -5
-14 -16 -10 -9 3 -18 6 -20 6 -3 0 -2 5 1 10 10 16 35 12 35 -6z m-192 -40
c-9 -10 -21 -13 -29 -8 -9 5 -8 9 7 15 31 12 39 10 22 -7z m96 -6 c11 -42 7
-58 -14 -58 -22 0 -23 3 -14 49 8 36 19 40 28 9z m93 -12 c-6 -18 -28 -13 -44
11 -15 22 -15 23 16 12 18 -6 30 -16 28 -23z m-449 13 c26 -7 50 -14 54 -18 4
-3 -121 -53 -278 -110 -245 -89 -316 -109 -292 -86 7 7 452 224 461 225 5 0
29 -5 55 -11z m294 -29 c-6 -16 -11 -20 -16 -11 -4 6 -2 19 5 27 16 20 21 12
11 -16z m640 -81 c221 -123 231 -129 224 -137 -7 -7 -526 198 -526 208 0 6 71
24 107 29 7 0 95 -45 195 -100z m-780 66 c2 -3 3 -18 0 -34 -4 -26 -10 -31
-50 -40 -26 -5 -48 -8 -50 -6 -2 1 9 21 25 44 25 36 58 52 75 36z m440 -47
c15 -23 26 -43 25 -45 -6 -5 -113 31 -119 41 -12 17 -4 30 23 37 40 12 43 10
71 -33z m-1208 -39 c26 -39 46 -72 44 -74 -12 -11 -171 -85 -178 -83 -4 2 9
46 29 98 21 52 41 103 44 113 4 9 8 17 10 17 2 0 25 -32 51 -71z m647 32 c-34
-43 -25 -40 -269 -91 -57 -12 -105 -20 -108 -18 -5 5 373 146 394 147 8 1 1
-15 -17 -38z m229 19 c0 -5 -2 -10 -4 -10 -3 0 -8 5 -11 10 -3 6 -1 10 4 10 6
0 11 -4 11 -10z m816 -178 c-3 -2 -345 87 -396 103 -13 4 -60 66 -60 79 0 2
103 -37 229 -87 126 -51 228 -93 227 -95z m-2076 44 c102 -56 185 -109 185
-116 0 -8 -73 -40 -185 -81 -749 -274 -903 -329 -907 -326 -4 5 708 626 717
626 3 0 88 -46 190 -103z m1310 74 c-18 -11 -22 -7 -14 14 5 13 10 14 18 6 8
-8 7 -13 -4 -20z m-71 -12 c11 -32 10 -35 -29 -71 -23 -22 -44 -37 -47 -34 -2
3 -1 31 2 62 6 45 12 58 29 65 32 13 33 12 45 -22z m231 6 c6 -14 10 -40 10
-57 l0 -32 -32 32 c-28 29 -30 35 -20 58 15 32 30 32 42 -1z m873 -72 c21 -55
37 -102 37 -105 0 -6 -138 69 -154 83 -8 8 62 119 75 120 3 0 22 -44 42 -98z
m-1302 -9 c-100 -110 -265 -281 -254 -263 5 8 60 86 122 172 111 156 119 163
180 167 20 1 13 -10 -48 -76z m319 -14 c-12 -30 -25 -58 -29 -62 -4 -4 -16 18
-27 49 l-19 56 29 25 c28 24 29 24 48 5 19 -18 19 -19 -2 -73z m246 76 c49
-15 50 -16 176 -208 113 -172 161 -252 131 -222 -64 65 -380 445 -370 445 7 0
36 -7 63 -15z m-471 -62 c-4 -32 -15 -66 -24 -77 -20 -23 -339 -290 -351 -294
-30 -11 9 37 182 222 106 113 194 206 196 206 2 0 0 -26 -3 -57z m2085 -269
c198 -179 360 -327 360 -329 0 -4 -51 16 -633 250 l-497 200 202 102 c112 56
204 102 206 102 1 1 165 -146 362 -325z m-2257 304 c-5 -7 -65 -91 -132 -185
-68 -95 -125 -173 -127 -173 -7 0 -185 272 -181 276 6 7 398 92 426 93 17 1
21 -2 14 -11z m700 -155 c79 -93 157 -184 172 -203 l29 -35 -35 31 c-90 81
-305 279 -311 289 -8 10 -11 85 -4 85 2 0 69 -75 149 -167z m267 96 c107 -28
196 -52 197 -53 3 -2 -163 -236 -177 -250 -7 -7 -250 342 -250 359 0 4 8 4 18
1 9 -3 105 -29 212 -57z m-1480 12 c0 -9 -54 -31 -74 -31 -11 1 53 39 67 40 4
0 7 -4 7 -9z m1014 -271 c67 -310 64 -292 51 -297 -11 -3 -166 418 -165 449 0
28 43 129 50 121 4 -4 33 -127 64 -273z m40 81 c9 -79 16 -153 15 -165 -1 -23
-78 307 -79 339 0 18 2 18 24 -5 22 -22 27 -41 40 -169z m-339 -91 c-38 -143
-70 -259 -71 -257 -2 1 11 106 27 232 l29 230 36 33 c20 19 38 31 41 28 3 -3
-25 -122 -62 -266z m129 214 l17 -55 -87 -220 c-48 -120 -92 -219 -97 -219 -5
0 -7 6 -5 13 3 6 36 130 73 275 38 144 71 262 75 262 3 0 14 -25 24 -56z m921
36 c3 -5 2 -10 -4 -10 -5 0 -13 5 -16 10 -3 6 -2 10 4 10 5 0 13 -4 16 -10z
m-1751 -66 c3 -26 6 -60 6 -76 l0 -29 -90 48 c-49 26 -90 51 -90 54 0 8 120
48 146 49 18 0 22 -8 28 -46z m115 -84 c45 -66 79 -120 76 -120 -4 0 -38 17
-76 38 -51 27 -70 43 -73 62 -10 47 -18 140 -14 140 3 0 42 -54 87 -120z
m1117 -51 c90 -83 164 -154 164 -158 0 -3 -65 -39 -145 -79 -80 -39 -145 -70
-145 -69 0 9 -40 378 -45 415 -4 23 -3 42 0 42 4 0 81 -68 171 -151z m571 130
c43 -12 84 -25 92 -29 10 -6 -20 -25 -98 -65 -105 -52 -113 -55 -108 -33 3 13
9 51 13 86 3 34 10 62 15 62 5 0 44 -10 86 -21z m-1175 -211 c-15 -115 -31
-208 -35 -208 -14 0 -269 141 -264 146 17 17 322 272 323 271 1 -1 -10 -95
-24 -209z m1038 121 c-6 -40 -12 -74 -13 -75 -1 -1 -35 -18 -76 -39 l-74 -37
38 54 c91 128 129 177 133 174 2 -3 -1 -37 -8 -77z m-1777 21 c136 -73 125
-59 142 -195 8 -65 15 -121 15 -124 0 -13 -69 62 -119 129 -54 72 -149 240
-136 240 4 0 48 -22 98 -50z m-183 23 c0 -5 -35 -98 -79 -208 l-78 -200 -137
0 c-445 1 -808 6 -803 12 6 6 1073 400 1090 402 4 1 7 -2 7 -6z m172 -233 c23
-30 69 -83 102 -117 l59 -63 -231 0 -230 0 40 103 c22 56 58 150 81 209 l41
107 49 -92 c26 -50 67 -116 89 -147z m1064 2 l71 -197 -96 -3 c-53 -2 -124 0
-157 3 l-62 6 80 200 c44 110 83 197 87 194 3 -4 38 -95 77 -203z m1581 -3
c291 -116 534 -214 542 -219 8 -4 -195 -5 -450 -3 -327 4 -467 9 -475 17 -11
10 -154 390 -154 408 0 4 2 8 5 8 3 0 242 -95 532 -211z m-646 144 c-16 -32
-52 -89 -79 -128 -52 -72 -140 -171 -146 -164 -2 2 4 57 13 123 l16 119 105
53 c58 29 108 53 113 53 4 1 -6 -25 -22 -56z m134 -98 c26 -71 58 -158 71
-192 l23 -63 -220 0 -221 0 72 78 c77 82 157 197 193 274 12 26 24 44 28 40 3
-4 27 -65 54 -137z m-1877 30 c39 -21 72 -43 72 -48 0 -11 -94 -139 -114 -156
-11 -10 -16 6 -25 91 -7 57 -15 116 -18 132 -3 15 -1 27 4 25 4 -2 41 -22 81
-44z m1512 -21 c0 -39 -24 -194 -30 -194 -8 0 -100 136 -100 148 0 8 102 59
123 61 4 1 7 -6 7 -15z m-1395 -74 c-3 -5 -20 -19 -38 -31 l-32 -22 29 31 c28
30 55 44 41 22z m184 -70 c187 -103 184 -99 70 -100 l-96 0 -57 85 c-31 47
-53 85 -50 85 3 0 63 -31 133 -70z m-109 -25 l51 -75 -125 0 c-69 0 -127 4
-130 9 -5 7 137 138 151 141 1 0 25 -34 53 -75z m1070 58 c-1 -5 -23 -38 -51
-75 l-49 -68 -95 0 c-52 0 -95 2 -95 5 0 5 270 144 283 144 4 1 7 -2 7 -6z
m130 -65 c39 -37 68 -72 65 -78 -7 -11 -119 -12 -203 -2 l-53 7 52 73 c28 40
55 72 59 70 4 -2 40 -33 80 -70z m-2059 -86 l67 -7 -171 -436 -171 -437 -31
24 c-40 30 -194 205 -263 297 -112 149 -207 311 -280 475 -23 50 -42 93 -42
95 0 5 830 -5 891 -11z m539 -7 c0 -4 -617 -670 -742 -800 -19 -20 -19 -19 -4
20 7 22 76 198 151 390 75 193 141 360 146 373 8 22 10 22 229 22 121 0 220
-2 220 -5z m54 -27 c9 -43 49 -408 45 -412 -11 -10 -852 -427 -855 -424 -4 5
789 857 798 857 4 1 10 -9 12 -21z m396 -68 c33 -49 59 -90 58 -90 -31 0 -266
117 -314 156 l-29 23 112 1 112 0 61 -90z m126 22 c-4 -38 -10 -82 -15 -98 -7
-28 -9 -27 -69 63 -34 51 -62 95 -62 98 0 3 34 5 76 5 l77 0 -7 -68z m349 58
c29 -1 29 -1 -15 -25 -25 -13 -53 -24 -63 -25 -18 0 -107 47 -107 57 0 3 35 2
78 -1 42 -3 91 -6 107 -6z m-776 -44 c69 -50 220 -130 294 -155 29 -10 51 -22
49 -27 -1 -5 -83 -48 -182 -95 l-179 -87 -5 37 c-3 20 -12 99 -21 176 -9 77
-18 152 -21 168 -3 15 -3 27 0 27 3 0 33 -20 65 -44z m599 8 l66 -37 -98 -49
c-54 -27 -100 -48 -102 -45 -4 4 59 167 65 167 2 0 33 -16 69 -36z m307 -63
c15 -40 24 -75 22 -78 -5 -5 -197 95 -197 103 0 2 30 19 68 38 76 39 69 43
107 -63z m19 77 c11 -42 5 -53 -9 -19 -18 39 -18 41 -6 41 5 0 11 -10 15 -22z
m186 16 c0 -10 -113 -164 -120 -164 -7 0 -30 121 -30 154 0 13 14 16 75 16 41
0 75 -3 75 -6z m270 -3 c0 -29 -326 -188 -346 -168 -3 3 23 44 57 91 l63 86
113 0 c62 0 113 -4 113 -9z m504 -464 c208 -242 376 -440 374 -442 -5 -5 -833
454 -836 464 -3 8 43 358 54 415 5 23 8 26 19 15 6 -8 182 -211 389 -452z
m212 93 c74 -201 145 -395 159 -432 13 -38 23 -68 21 -68 -6 0 -746 859 -746
865 0 3 97 4 216 3 l215 -3 135 -365z m772 354 c74 -4 112 -10 112 -17 0 -7
-30 -70 -66 -142 -78 -155 -202 -345 -312 -475 -99 -118 -261 -275 -272 -264
-6 7 -151 395 -305 820 l-33 90 381 -3 c210 -2 433 -6 495 -9z m-1424 -36 c-3
-18 -15 -109 -29 -201 -13 -93 -25 -170 -27 -172 -2 -2 -86 42 -187 98 l-183
101 73 23 c92 30 240 102 299 147 25 19 48 35 52 35 4 1 5 -14 2 -31z m-647
-84 c57 -31 102 -59 99 -62 -13 -12 -198 -20 -287 -12 -147 14 -147 16 -28 76
57 29 106 53 108 53 1 1 50 -24 108 -55z m-547 -656 c-78 -298 -146 -551 -150
-563 -8 -18 -9 -18 -9 -2 -1 10 -23 210 -51 444 -27 234 -50 439 -50 454 0 27
10 34 198 128 108 54 198 95 200 91 2 -5 -61 -253 -138 -552z m375 533 c55 -4
145 -3 199 1 55 4 100 7 102 6 4 -5 -233 -330 -240 -330 -6 1 -192 268 -230
331 -7 11 -2 12 30 6 21 -4 84 -10 139 -14z m394 -188 c24 -109 79 -360 122
-558 44 -197 78 -364 76 -369 -2 -5 -118 163 -259 373 l-257 383 132 184 c73
101 134 184 138 184 3 0 24 -89 48 -197z m-470 6 c62 -92 111 -173 109 -181
-3 -13 -521 -738 -525 -734 -2 1 274 1063 282 1085 7 19 3 24 134 -170z m652
84 c170 -93 178 -99 179 -128 0 -16 -27 -221 -60 -455 -33 -234 -60 -429 -60
-434 0 -5 -2 -7 -5 -5 -4 5 -245 1096 -245 1112 0 4 3 7 6 7 3 0 86 -44 185
-97z m-1241 -103 c0 -5 25 -224 56 -486 30 -262 53 -478 51 -480 -2 -2 -64 16
-138 41 -259 89 -559 255 -778 431 l-84 68 438 218 c241 120 442 218 447 218
4 0 8 -4 8 -10z m1894 -259 c230 -127 422 -233 425 -237 18 -18 -266 -209
-444 -298 -71 -36 -185 -85 -252 -110 -130 -49 -289 -93 -299 -83 -3 3 24 219
60 479 36 260 66 477 66 482 0 12 -8 16 444 -233z m-893 -337 c149 -223 269
-407 267 -409 -8 -8 -208 -36 -328 -46 -137 -11 -328 -7 -475 12 -94 11 -285
48 -301 58 -10 6 543 789 558 790 5 1 130 -182 279 -405z"/>
<path d="M5370 5892 c-45 -36 -1 -99 50 -72 27 14 27 65 1 80 -25 13 -25 13
-51 -8z"/>
<path d="M3069 5809 c-26 -50 35 -93 75 -53 19 18 20 28 6 55 -15 27 -66 26
-81 -2z"/>
<path d="M5286 5803 c-4 -10 0 -23 11 -33 25 -23 291 -170 307 -170 19 0 37
25 31 42 -8 19 -293 178 -321 178 -12 0 -25 -8 -28 -17z"/>
<path d="M5572 5778 c-7 -7 -12 -21 -12 -33 0 -12 5 -26 12 -33 7 -7 21 -12
33 -12 12 0 26 5 33 12 7 7 12 21 12 33 0 12 -5 26 -12 33 -7 7 -21 12 -33 12
-12 0 -26 -5 -33 -12z"/>
<path d="M2948 5759 c-28 -16 -23 -67 7 -81 21 -9 28 -8 45 7 25 23 26 47 2
68 -21 19 -30 20 -54 6z"/>
<path d="M5243 5734 c-3 -9 2 -23 13 -34 33 -31 303 -172 319 -166 8 3 15 16
15 30 0 21 -19 35 -149 105 -150 82 -187 94 -198 65z"/>
<path d="M2106 5094 c-23 -23 -20 -51 8 -69 33 -22 66 -5 66 33 0 49 -42 69
-74 36z"/>
<path d="M6287 5013 c-17 -16 -2 -47 79 -164 106 -153 113 -161 138 -157 40 6
27 39 -74 183 -95 136 -121 161 -143 138z"/>
<path d="M6407 5003 c-13 -12 -7 -60 8 -73 38 -31 96 27 65 65 -13 15 -61 21
-73 8z"/>
<path d="M2002 4978 c-27 -27 -1 -78 38 -78 29 0 54 43 40 69 -12 24 -58 29
-78 9z"/>
<path d="M6217 4973 c-19 -18 2 -59 92 -183 79 -109 102 -135 121 -135 16 0
26 7 28 18 3 15 -144 237 -191 287 -18 20 -38 25 -50 13z"/>
<path d="M6486 4904 c-9 -8 -16 -24 -16 -34 0 -20 25 -50 41 -50 27 0 49 22
49 50 0 44 -44 64 -74 34z"/>
<path d="M1922 4858 c-28 -28 -7 -78 33 -78 27 0 45 18 45 45 0 27 -18 45 -45
45 -12 0 -26 -5 -33 -12z"/>
<path d="M1582 3984 c-27 -18 -28 -45 -4 -67 25 -23 48 -21 66 5 20 29 20 34
-4 58 -24 24 -29 24 -58 4z"/>
<path d="M1546 3854 c-34 -34 -9 -78 41 -72 22 2 29 9 31 31 6 50 -38 75 -72
41z"/>
<path d="M6796 3852 c-7 -20 37 -343 49 -361 10 -17 45 -13 52 5 8 21 -36 345
-49 362 -15 18 -46 15 -52 -6z"/>
<path d="M6714 3845 c-10 -25 43 -346 58 -362 22 -21 48 -6 48 28 0 44 -39
301 -50 327 -11 25 -48 30 -56 7z"/>
<path d="M1527 3722 c-38 -42 -2 -96 49 -73 31 14 34 65 5 81 -27 14 -35 13
-54 -8z"/>
<path d="M6902 3728 c-27 -27 -1 -78 38 -78 29 0 54 43 40 69 -12 24 -58 29
-78 9z"/>
<path d="M1516 3594 c-22 -21 -20 -50 5 -67 26 -19 58 -10 71 19 21 46 -41 84
-76 48z"/>
<path d="M1655 2664 c-8 -9 -15 -17 -15 -19 0 -9 110 -305 120 -325 13 -25 53
-24 58 2 3 15 -54 182 -103 305 -19 47 -38 59 -60 37z"/>
<path d="M6648 2593 c-21 -25 -130 -309 -126 -330 4 -22 41 -29 55 -11 20 26
124 311 121 331 -4 28 -30 33 -50 10z"/>
<path d="M6756 2548 c-28 -45 -127 -300 -124 -321 2 -16 10 -22 28 -22 23 0
30 13 87 150 64 157 74 199 47 209 -22 8 -22 8 -38 -16z"/>
<path d="M2286 1614 c-8 -22 0 -30 134 -146 138 -119 141 -121 166 -103 27 20
16 33 -127 158 -122 106 -160 126 -173 91z"/>
<path d="M5863 1469 c-103 -86 -133 -116 -133 -135 0 -48 41 -29 176 84 102
85 129 112 129 132 0 51 -35 34 -172 -81z"/>
<path d="M6050 1500 c-11 -11 -20 -26 -20 -33 0 -18 32 -47 52 -47 17 0 48 31
48 48 0 15 -36 52 -50 52 -5 0 -19 -9 -30 -20z"/>
<path d="M2331 1441 c-7 -5 -13 -21 -13 -36 0 -32 17 -46 51 -43 34 4 48 30
33 62 -12 27 -44 34 -71 17z"/>
<path d="M5960 1421 c-14 -27 -13 -37 6 -55 40 -40 101 3 75 53 -15 28 -66 29
-81 2z"/>
<path d="M5892 1358 c-28 -28 -7 -78 33 -78 27 0 45 18 45 45 0 27 -18 45 -45
45 -12 0 -26 -5 -33 -12z"/>
<path d="M5807 1292 c-22 -24 -21 -45 1 -65 25 -23 48 -21 66 5 20 29 20 34
-4 58 -25 25 -42 25 -63 2z"/>
<path d="M3383 993 c-7 -2 -13 -13 -13 -23 0 -9 6 -22 13 -28 18 -15 324 -104
344 -100 25 4 29 44 6 56 -17 9 -327 103 -335 101 -1 0 -9 -3 -15 -6z"/>
<path d="M4745 914 c-182 -33 -175 -31 -175 -59 0 -14 7 -26 18 -29 27 -9 341
49 358 66 8 8 12 22 8 31 -8 22 -46 21 -209 -9z"/>
<path d="M3416 864 c-22 -21 -20 -50 5 -67 44 -32 94 14 64 59 -18 28 -46 31
-69 8z"/>
<path d="M3570 820 c-24 -24 -24 -29 -4 -58 18 -27 45 -28 67 -4 23 25 21 48
-5 66 -29 20 -34 20 -58 -4z"/>
<path d="M4852 828 c-28 -28 -7 -78 33 -78 27 0 45 18 45 45 0 27 -18 45 -45
45 -12 0 -26 -5 -33 -12z"/>
<path d="M4746 804 c-30 -30 -10 -74 34 -74 40 0 58 32 35 66 -18 28 -46 31
-69 8z"/>
<path d="M4632 788 c-30 -30 -3 -83 39 -76 29 4 43 29 35 61 -5 21 -12 27 -34
27 -15 0 -33 -5 -40 -12z"/>
</g>
</svg>
