<?xml version="1.0" standalone="no"?>
<!DOCTYPE svg PUBLIC "-//W3C//DTD SVG 20010904//EN"
 "http://www.w3.org/TR/2001/REC-SVG-20010904/DTD/svg10.dtd">
<svg version="1.0" xmlns="http://www.w3.org/2000/svg"
 width="665.000000pt" height="172.000000pt" viewBox="0 0 665.000000 172.000000"
 preserveAspectRatio="xMidYMid meet">

<g transform="translate(0.000000,172.000000) scale(0.100000,-0.100000)"
fill="#000000" stroke="none">
<path d="M307 1273 c-4 -3 -7 -190 -7 -413 0 -318 3 -410 13 -418 9 -7 364
-10 1152 -9 l1140 2 3 423 2 422 -1148 0 c-632 0 -1152 -3 -1155 -7z"/>
<path d="M4062 858 l3 -423 1130 -2 c793 -1 1133 1 1142 9 10 8 13 98 13 424
l0 414 -1145 0 -1145 0 2 -422z"/>
</g>
</svg>
