<?xml version="1.0" standalone="no"?>
<!DOCTYPE svg PUBLIC "-//W3C//DTD SVG 20010904//EN"
 "http://www.w3.org/TR/2001/REC-SVG-20010904/DTD/svg10.dtd">
<svg version="1.0" xmlns="http://www.w3.org/2000/svg"
 width="393.000000pt" height="393.000000pt" viewBox="0 0 393.000000 393.000000"
 preserveAspectRatio="xMidYMid meet">

<g transform="translate(0.000000,393.000000) scale(0.100000,-0.100000)"
fill="#000000" stroke="none">
<path d="M1740 3910 c-605 -70 -1147 -423 -1459 -948 -158 -266 -246 -550
-272 -874 -23 -294 41 -640 170 -928 176 -390 485 -719 871 -928 164 -88 414
-170 620 -203 53 -9 166 -14 300 -13 178 0 235 4 332 22 949 179 1618 979
1618 1935 0 345 -112 735 -290 1018 -312 492 -781 807 -1348 905 -103 18 -434
26 -542 14z m465 -34 c190 -52 363 -159 490 -300 176 -197 254 -418 242 -681
-12 -248 -93 -437 -264 -616 -114 -119 -259 -211 -403 -257 -100 -31 -104 -32
-295 -47 -252 -19 -353 -48 -525 -149 -98 -57 -234 -186 -299 -284 -131 -196
-193 -453 -161 -677 46 -330 235 -597 528 -749 51 -26 92 -49 92 -53 0 -7 -62
4 -130 24 -557 161 -975 493 -1234 983 -91 172 -159 375 -193 575 -22 127 -25
488 -4 615 133 841 794 1498 1631 1624 131 20 442 15 525 -8z m-99 -2596 c236
-116 246 -434 18 -570 -56 -34 -62 -35 -159 -35 -99 0 -103 1 -161 36 -209
129 -220 412 -20 547 105 70 210 78 322 22z"/>
<path d="M1852 3275 c-151 -42 -240 -171 -230 -334 6 -93 30 -151 88 -209 177
-175 469 -107 545 126 23 69 16 179 -14 243 -67 141 -237 217 -389 174z"/>
</g>
</svg>
