<?xml version="1.0" standalone="no"?>
<!DOCTYPE svg PUBLIC "-//W3C//DTD SVG 20010904//EN"
 "http://www.w3.org/TR/2001/REC-SVG-20010904/DTD/svg10.dtd">
<svg version="1.0" xmlns="http://www.w3.org/2000/svg"
 width="120.000000pt" height="120.000000pt" viewBox="0 0 120.000000 120.000000"
 preserveAspectRatio="xMidYMid meet">

<g transform="translate(0.000000,120.000000) scale(0.100000,-0.100000)"
fill="#000000" stroke="none">
<path d="M255 1098 c-77 -28 -154 -110 -175 -187 -22 -79 1 -190 51 -250 l20
-24 21 20 c21 21 21 21 1 50 -59 84 -55 189 9 268 43 51 95 75 165 75 102 -1
184 -59 212 -149 7 -26 11 -165 11 -430 l0 -391 30 0 30 0 0 391 c0 265 4 404
11 430 28 90 110 148 212 149 178 0 277 -195 174 -343 -20 -29 -20 -29 1 -50
l21 -20 20 24 c30 36 61 124 61 174 0 98 -68 207 -158 251 -51 26 -192 26
-242 1 -40 -20 -87 -60 -113 -97 l-17 -24 -17 24 c-26 37 -73 78 -113 97 -42
21 -171 27 -215 11z"/>
</g>
</svg>
