<?xml version="1.0" encoding="UTF-8"?>
<svg version="1.1" xmlns="http://www.w3.org/2000/svg" width="120" height="120">
<path d="M0 0 C9.57 0 19.14 0 29 0 C29 9.57 29 19.14 29 29 C26.69 29 24.38 29 22 29 C21.505 21.575 21.505 21.575 21 14 C8.13 26.87 -4.74 39.74 -18 53 C-13.19467092 58.64313179 -13.19467092 58.64313179 -8.1328125 63.96484375 C-7.47539063 64.61904297 -6.81796875 65.27324219 -6.140625 65.94726562 C-5.47546875 66.60404297 -4.8103125 67.26082031 -4.125 67.9375 C-3.43664062 68.62134766 -2.74828125 69.30519531 -2.0390625 70.00976562 C-0.36166489 71.67551464 1.31803791 73.3388622 3 75 C1.48601545 78.78496138 0.9855604 79.0072198 -3 81 C-9.93 74.07 -16.86 67.14 -24 60 C-29.89308652 65.0444208 -29.89308652 65.0444208 -35.46655273 70.35302734 C-36.2668541 71.15340424 -37.06715546 71.95378113 -37.89170837 72.77841187 C-39.14994164 74.04438705 -39.14994164 74.04438705 -40.43359375 75.3359375 C-41.31153091 76.21528961 -42.18946808 77.09464172 -43.0940094 78.00064087 C-45.87754412 80.78974058 -48.65756769 83.58231018 -51.4375 86.375 C-53.33216665 88.2752542 -55.2275963 90.17474653 -57.12304688 92.07421875 C-61.75135161 96.71350604 -66.37678421 101.35564167 -71 106 C-74.78496138 104.48601545 -75.0072198 103.9855604 -77 100 C-61.82 84.82 -46.64 69.64 -31 54 C-35.80532908 48.35686821 -35.80532908 48.35686821 -40.8671875 43.03515625 C-41.52460937 42.38095703 -42.18203125 41.72675781 -42.859375 41.05273438 C-43.52453125 40.39595703 -44.1896875 39.73917969 -44.875 39.0625 C-45.56335938 38.37865234 -46.25171875 37.69480469 -46.9609375 36.99023438 C-48.63833511 35.32448536 -50.31803791 33.6611378 -52 32 C-50.48601545 28.21503862 -49.9855604 27.9927802 -46 26 C-39.07 32.93 -32.14 39.86 -25 47 C-19.43462098 42.26731953 -19.43462098 42.26731953 -14.17602539 37.28955078 C-13.18579124 36.29920334 -13.18579124 36.29920334 -12.17555237 35.28884888 C-11.48984665 34.59798187 -10.80414093 33.90711487 -10.09765625 33.1953125 C-9.3750914 32.4713327 -8.65252655 31.74735291 -7.9080658 31.00143433 C-5.62383078 28.71164735 -3.34311688 26.41839007 -1.0625 24.125 C0.49521039 22.56226839 2.05315087 20.9997661 3.61132812 19.4375 C7.41021714 15.62764578 11.20595449 11.8146774 15 8 C10.05 7.67 5.1 7.34 0 7 C0 4.69 0 2.38 0 0 Z " fill="#000000" transform="translate(84,7)"/>
</svg>
