<?xml version="1.0" encoding="UTF-8"?>
<svg version="1.1" xmlns="http://www.w3.org/2000/svg" width="120" height="120">
<path d="M0 0 C4.71216147 3.5628538 9.16167162 8.05402081 10.5625 13.9375 C11.32423943 21.25019849 9.76014311 26.30293639 5.9375 32.625 C0.49406317 37.92518849 -5.0221248 39.03443655 -12.4375 38.9375 C-10.42983917 42.42080122 -8.42175934 45.90386054 -6.41333008 49.38671875 C-5.40359926 51.13790015 -4.39417793 52.88925998 -3.38476562 54.640625 C-2.73056641 55.775 -2.07636719 56.909375 -1.40234375 58.078125 C-0.74733887 59.21572266 -0.09233398 60.35332031 0.58251953 61.52539062 C1.90387498 63.80248851 3.2382553 66.07207732 4.58544922 68.33398438 C5.21596191 69.39423828 5.84647461 70.45449219 6.49609375 71.546875 C7.06255615 72.49014648 7.62901855 73.43341797 8.21264648 74.40527344 C11.11132869 79.84298944 11.69981732 86.16242865 9.9140625 92.08984375 C7.6114355 97.21663294 4.21891731 100.81521554 -0.4375 103.9375 C-6.3730259 105.91600863 -13.28195511 106.16793549 -19.15234375 103.87890625 C-24.38535815 100.66595731 -27.70553649 96.87566062 -29.4375 90.9375 C-29.6875 87.4375 -29.6875 87.4375 -29.4375 84.9375 C-27.1275 84.9375 -24.8175 84.9375 -22.4375 84.9375 C-22.128125 86.5153125 -22.128125 86.5153125 -21.8125 88.125 C-20.51760615 92.65253664 -18.31896061 94.34985959 -14.4375 96.9375 C-10.06102084 98.62076121 -6.71966164 97.65036465 -2.4375 95.9375 C1.10591767 92.20758666 3.01173296 89.29073421 2.91992188 84.05615234 C2.15691926 79.53338141 -0.42120289 75.67397121 -2.6875 71.75 C-3.23398193 70.79907471 -3.78046387 69.84814941 -4.34350586 68.8684082 C-5.48392235 66.88590857 -6.62776831 64.90537806 -7.77490234 62.92675781 C-9.38839747 60.02578362 -10.82592203 57.08903787 -12.23828125 54.0859375 C-16.30893594 44.94244198 -16.30893594 44.94244198 -23.81787109 38.98876953 C-29.43245536 37.87428773 -34.79282829 38.20534593 -40.4375 38.9375 C-40.60178749 39.91255997 -40.60178749 39.91255997 -40.76939392 40.90731812 C-42.03070573 48.13943744 -43.65188046 55.23357475 -45.44140625 62.3515625 C-45.72475327 63.48782074 -46.00810028 64.62407898 -46.30003357 65.79476929 C-46.89417104 68.17334628 -47.49006433 70.55148532 -48.08764648 72.92919922 C-49.00580246 76.58560734 -49.91631945 80.24386161 -50.82617188 83.90234375 C-51.40579676 86.21886345 -51.98585892 88.5352738 -52.56640625 90.8515625 C-52.97579185 92.49821396 -52.97579185 92.49821396 -53.39344788 94.1781311 C-53.64718674 95.18363007 -53.9009256 96.18912903 -54.16235352 97.22509766 C-54.3850441 98.11347321 -54.60773468 99.00184875 -54.83717346 99.91714478 C-55.4375 101.9375 -55.4375 101.9375 -56.4375 102.9375 C-58.77047433 102.97842937 -61.10455225 102.97991723 -63.4375 102.9375 C-65.39881448 95.1849473 -67.35503349 87.43113436 -69.30477142 79.67566299 C-70.21028444 76.07447992 -71.11754222 72.47375534 -72.02880859 68.87402344 C-72.90826202 65.39968977 -73.78310438 61.92422478 -74.6547699 58.44792938 C-74.98803451 57.12225823 -75.32295488 55.79700219 -75.65956116 54.4721756 C-76.1309456 52.61569738 -76.59588684 50.75758675 -77.06054688 48.89941406 C-77.32702026 47.84240295 -77.59349365 46.78539185 -77.86804199 45.6963501 C-78.4375 42.9375 -78.4375 42.9375 -78.4375 38.9375 C-83.3875 38.9375 -88.3375 38.9375 -93.4375 38.9375 C-93.4375 36.6275 -93.4375 34.3175 -93.4375 31.9375 C-86.8375 31.9375 -80.2375 31.9375 -73.4375 31.9375 C-68.43766188 49.51757596 -63.95547934 67.22891147 -59.4375 84.9375 C-59.27685562 84.28826065 -59.11621124 83.6390213 -58.95069885 82.97010803 C-57.28410342 76.23756322 -55.61261707 69.50624653 -53.93823242 62.77563477 C-53.31326721 60.26064987 -52.68956701 57.74535027 -52.06713867 55.22973633 C-51.17435578 51.62238208 -50.27708987 48.01616903 -49.37890625 44.41015625 C-49.0997084 43.27788101 -48.82051056 42.14560577 -48.53285217 40.97901917 C-48.27265793 39.93801559 -48.01246368 38.89701202 -47.74438477 37.82446289 C-47.51566177 36.90290909 -47.28693878 35.98135529 -47.05128479 35.03187561 C-46.4375 32.9375 -46.4375 32.9375 -45.4375 31.9375 C-44.02422053 31.78129445 -42.6039541 31.68693827 -41.18359375 31.62109375 C-40.32958984 31.57919922 -39.47558594 31.53730469 -38.59570312 31.49414062 C-37.69787109 31.45482422 -36.80003906 31.41550781 -35.875 31.375 C-34.97330078 31.33181641 -34.07160156 31.28863281 -33.14257812 31.24414062 C-30.90771515 31.13771858 -28.67273692 31.03570012 -26.4375 30.9375 C-26.92347656 30.06867187 -27.40945312 29.19984375 -27.91015625 28.3046875 C-30.49109326 22.61474452 -30.36054519 16.62968074 -28.8515625 10.59375 C-26.83355577 5.78015596 -23.56560002 2.6925914 -19.140625 0.00390625 C-12.93328015 -2.44494512 -6.28178015 -1.94164114 0 0 Z M-21.4375 11.9375 C-23.19416663 15.45083325 -22.99361276 19.10387163 -22.4375 22.9375 C-21.05827257 26.13962242 -19.35992327 29.0332677 -17.4375 31.9375 C-11.40096301 32.2596077 -6.60504855 32.50556924 -1.4375 28.9375 C2.28653978 24.98643573 2.28653978 24.98643573 3.58203125 19.94921875 C3.12345778 14.80108266 2.48012842 11.63126394 -1.4375 7.9375 C-9.16727032 3.39343 -15.78495849 5.44380648 -21.4375 11.9375 Z " fill="#000000" transform="translate(101.4375,8.0625)"/>
</svg>
