<?xml version="1.0" encoding="UTF-8"?>
<svg version="1.1" xmlns="http://www.w3.org/2000/svg" width="120" height="120">
<path d="M0 0 C3.11797769 1.79539289 5.88648952 3.91421165 8.625 6.25 C11.84676625 7.86088313 15.13100534 7.71290673 18.625 7.25 C21.1832085 6.21923958 23.36294078 4.81644946 25.625 3.25 C32.52211318 -1.39228772 37.33817477 -2.57754889 45.625 -1.75 C50.67105014 -0.11321399 54.61228235 2.82738789 58.625 6.25 C61.80987214 7.84243607 65.15785899 7.65104989 68.625 7.25 C69.6975 6.71375 70.77 6.1775 71.875 5.625 C74.625 4.25 74.625 4.25 76.875 4.875 C78.625 6.25 78.625 6.25 80.625 9.25 C74.70860746 14.3211936 70.10952892 15.71538816 62.41015625 15.5703125 C55.97391673 14.83009982 51.49865543 11.28817164 46.625 7.25 C42.90057894 6.00852631 39.49408665 5.71201271 35.625 6.25 C32.43920633 7.92939769 32.43920633 7.92939769 29.625 10.25 C22.78376976 14.94496193 17.86936001 16.07330818 9.625 15.25 C4.54785777 13.60312866 0.70476292 10.63037499 -3.375 7.25 C-7.07131587 6.01789471 -10.52749943 5.78226464 -14.375 6.25 C-16.04834039 7.23879205 -17.71651823 8.23648336 -19.375 9.25 C-22.73605951 8.28969728 -23.38633714 7.23299429 -25.375 4.25 C-18.02795783 -2.04746472 -9.08974496 -4.3810156 0 0 Z " fill="#000000" transform="translate(32.375,70.75)"/>
<path d="M0 0 C3.11797769 1.79539289 5.88648952 3.91421165 8.625 6.25 C11.84676625 7.86088313 15.13100534 7.71290673 18.625 7.25 C21.1832085 6.21923958 23.36294078 4.81644946 25.625 3.25 C32.52211318 -1.39228772 37.33817477 -2.57754889 45.625 -1.75 C50.67105014 -0.11321399 54.61228235 2.82738789 58.625 6.25 C61.80987214 7.84243607 65.15785899 7.65104989 68.625 7.25 C69.6975 6.71375 70.77 6.1775 71.875 5.625 C74.625 4.25 74.625 4.25 76.875 4.875 C78.625 6.25 78.625 6.25 80.625 9.25 C74.70860746 14.3211936 70.10952892 15.71538816 62.41015625 15.5703125 C55.97391673 14.83009982 51.49865543 11.28817164 46.625 7.25 C42.90057894 6.00852631 39.49408665 5.71201271 35.625 6.25 C32.43920633 7.92939769 32.43920633 7.92939769 29.625 10.25 C22.78376976 14.94496193 17.86936001 16.07330818 9.625 15.25 C4.54785777 13.60312866 0.70476292 10.63037499 -3.375 7.25 C-7.07131587 6.01789471 -10.52749943 5.78226464 -14.375 6.25 C-16.04834039 7.23879205 -17.71651823 8.23648336 -19.375 9.25 C-22.73605951 8.28969728 -23.38633714 7.23299429 -25.375 4.25 C-18.02795783 -2.04746472 -9.08974496 -4.3810156 0 0 Z " fill="#000000" transform="translate(32.375,35.75)"/>
</svg>
