<?xml version="1.0" encoding="UTF-8"?>
<svg version="1.1" xmlns="http://www.w3.org/2000/svg" width="120" height="120">
<path d="M0 0 C7.85609955 0.88223578 13.58672811 7.96166367 18.3125 13.875 C24.26540351 22.34060216 28.5227418 32.5451641 28 43 C29.98 43 31.96 43 34 43 C34.01417969 42.34515625 34.02835938 41.6903125 34.04296875 41.015625 C34.7673837 27.15384705 41.28213208 15.0053832 51.265625 5.5078125 C57.60103627 0 57.60103627 0 62 0 C62.99 2.97 62.99 2.97 64 6 C63.35933594 6.46148438 62.71867187 6.92296875 62.05859375 7.3984375 C49.3490191 16.9827069 44.39355681 27.72899434 41 43 C54.53 43 68.06 43 82 43 C82 44.98 82 46.96 82 49 C68.47 49 54.94 49 41 49 C44.44361298 62.56052659 44.44361298 62.56052659 51 74 C51.40089844 74.57105469 51.80179687 75.14210938 52.21484375 75.73046875 C55.46571846 79.98834842 59.65485633 82.95947763 64 86 C63.34 87.98 62.68 89.96 62 92 C57.18169972 91.56679502 54.45966224 89.26462795 51.0625 86.0625 C50.53398438 85.56886963 50.00546875 85.07523926 49.4609375 84.56665039 C44.95795295 80.21862966 41.70579132 75.66328415 39 70 C38.60167969 69.18789062 38.20335937 68.37578125 37.79296875 67.5390625 C35.0669158 61.43193328 34.25298707 55.65356003 34 49 C32.02 49 30.04 49 28 49 C27.98582031 49.65484375 27.97164062 50.3096875 27.95703125 50.984375 C27.2326163 64.84615295 20.71786792 76.9946168 10.734375 86.4921875 C4.39896373 92 4.39896373 92 0 92 C-0.99 89.03 -0.99 89.03 -2 86 C-1.28714844 85.47792969 -0.57429688 84.95585938 0.16015625 84.41796875 C12.4749414 74.95398178 17.98418781 64.07906093 21 49 C7.8 49 -5.4 49 -19 49 C-19 47.02 -19 45.04 -19 43 C-5.8 43 7.4 43 21 43 C16.62885762 26.60821607 12.02508765 15.25655785 -2 6 C-1.34 4.02 -0.68 2.04 0 0 Z " fill="#000000" transform="translate(29,14)"/>
</svg>
