<?xml version="1.0" standalone="no"?>
<!DOCTYPE svg PUBLIC "-//W3C//DTD SVG 20010904//EN"
 "http://www.w3.org/TR/2001/REC-SVG-20010904/DTD/svg10.dtd">
<svg version="1.0" xmlns="http://www.w3.org/2000/svg"
 width="120.000000pt" height="120.000000pt" viewBox="0 0 120.000000 120.000000"
 preserveAspectRatio="xMidYMid meet">

<g transform="translate(0.000000,120.000000) scale(0.100000,-0.100000)"
fill="#000000" stroke="none">
<path d="M243 1060 c12 -98 74 -193 165 -251 l42 -27 -51 -32 c-62 -40 -111
-103 -140 -178 -17 -46 -20 -73 -17 -142 3 -73 9 -94 38 -148 38 -72 87 -119
162 -159 48 -25 62 -28 158 -28 100 0 108 1 168 34 116 63 183 168 190 297 7
133 -46 245 -151 318 l-56 39 42 27 c90 57 152 152 164 250 l6 50 -30 0 c-29
0 -31 -3 -37 -47 -12 -94 -88 -189 -183 -230 -51 -22 -175 -22 -226 0 -95 41
-171 136 -183 230 -6 44 -8 47 -37 47 l-30 0 6 -50z m493 -343 c28 -14 70 -47
92 -72 130 -148 78 -386 -103 -471 -70 -33 -180 -33 -250 0 -181 85 -233 323
-103 471 38 43 91 77 148 96 49 16 162 4 216 -24z"/>
</g>
</svg>
