<?xml version="1.0" standalone="no"?>
<!DOCTYPE svg PUBLIC "-//W3C//DTD SVG 20010904//EN"
 "http://www.w3.org/TR/2001/REC-SVG-20010904/DTD/svg10.dtd">
<svg version="1.0" xmlns="http://www.w3.org/2000/svg"
 width="120.000000pt" height="120.000000pt" viewBox="0 0 120.000000 120.000000"
 preserveAspectRatio="xMidYMid meet">

<g transform="translate(0.000000,120.000000) scale(0.100000,-0.100000)"
fill="#000000" stroke="none">
<path d="M100 1101 c-5 -11 -10 -22 -10 -25 0 -10 112 -63 173 -82 l57 -18 0
-376 0 -376 -57 -18 c-67 -21 -173 -73 -173 -84 0 -5 6 -16 13 -27 13 -17 17
-17 81 14 37 17 106 43 154 58 80 25 100 27 262 27 161 0 182 -2 260 -26 47
-15 116 -41 155 -58 65 -29 70 -30 82 -14 7 10 13 21 13 26 0 11 -106 63 -172
84 l-58 18 0 376 0 376 58 18 c66 21 172 73 172 84 0 5 -6 16 -13 26 -12 16
-17 15 -82 -14 -39 -17 -108 -43 -155 -58 -78 -24 -99 -26 -260 -26 -162 0
-182 2 -262 27 -48 15 -116 40 -151 57 -76 36 -73 35 -87 11z m500 -156 c80 0
162 3 183 7 l37 7 0 -359 0 -359 -37 7 c-21 4 -103 7 -183 7 -80 0 -162 -3
-182 -7 l-38 -7 0 359 0 359 38 -7 c20 -4 102 -7 182 -7z"/>
</g>
</svg>
