<?xml version="1.0" standalone="no"?>
<!DOCTYPE svg PUBLIC "-//W3C//DTD SVG 20010904//EN"
 "http://www.w3.org/TR/2001/REC-SVG-20010904/DTD/svg10.dtd">
<svg version="1.0" xmlns="http://www.w3.org/2000/svg"
 width="120.000000pt" height="120.000000pt" viewBox="0 0 120.000000 120.000000"
 preserveAspectRatio="xMidYMid meet">

<g transform="translate(0.000000,120.000000) scale(0.100000,-0.100000)"
fill="#000000" stroke="none">
<path d="M478 1114 c-71 -17 -166 -64 -213 -105 -40 -36 -43 -44 -16 -59 16
-8 30 -3 77 30 192 135 442 114 604 -49 63 -64 127 -170 94 -157 -81 33 -150
27 -212 -20 -96 -74 -96 -235 0 -307 127 -96 301 -19 315 140 3 36 -1 84 -11
127 -68 287 -356 469 -638 400z m530 -400 c97 -63 72 -214 -40 -245 -52 -14
-98 2 -138 47 -25 29 -30 43 -30 84 0 107 118 172 208 114z"/>
<path d="M218 790 c-123 -37 -171 -146 -134 -304 68 -287 353 -467 635 -401
76 18 187 75 226 115 23 25 26 32 15 45 -18 21 -22 20 -86 -25 -192 -135 -442
-114 -604 49 -63 64 -127 170 -94 157 57 -23 88 -27 133 -16 93 23 151 96 151
190 0 91 -56 165 -145 189 -46 12 -59 13 -97 1z m95 -64 c88 -36 116 -142 57
-210 -71 -80 -179 -65 -229 31 -34 66 10 160 85 183 41 12 51 12 87 -4z"/>
</g>
</svg>
