<?xml version="1.0" standalone="no"?>
<!DOCTYPE svg PUBLIC "-//W3C//DTD SVG 20010904//EN"
 "http://www.w3.org/TR/2001/REC-SVG-20010904/DTD/svg10.dtd">
<svg version="1.0" xmlns="http://www.w3.org/2000/svg"
 width="120.000000pt" height="120.000000pt" viewBox="0 0 120.000000 120.000000"
 preserveAspectRatio="xMidYMid meet">

<g transform="translate(0.000000,120.000000) scale(0.100000,-0.100000)"
fill="#000000" stroke="none">
<path d="M506 1114 c-34 -11 -64 -31 -102 -68 -92 -93 -107 -204 -45 -341 17
-37 31 -69 31 -71 0 -2 -17 -4 -38 -4 -86 0 -152 -67 -152 -155 0 -154 190
-211 278 -84 21 30 23 42 19 104 -4 58 -14 89 -57 180 -67 141 -73 192 -36
269 30 60 93 111 153 122 94 18 190 -29 235 -115 46 -88 38 -176 -39 -421 -38
-122 -46 -161 -50 -250 -5 -98 -3 -107 19 -139 63 -92 193 -93 256 -1 12 18
22 44 22 56 0 20 -5 24 -30 24 -23 0 -30 -5 -30 -19 0 -27 -56 -71 -90 -71
-16 0 -42 11 -59 26 -30 25 -31 29 -30 102 0 79 8 114 73 332 70 236 60 357
-38 455 -80 80 -178 103 -290 69z m-97 -570 c26 -21 31 -33 31 -69 0 -36 -5
-48 -31 -69 -39 -33 -79 -33 -118 0 -26 21 -31 33 -31 69 0 36 5 48 31 69 17
15 43 26 59 26 16 0 42 -11 59 -26z"/>
</g>
</svg>
