<?xml version="1.0" standalone="no"?>
<!DOCTYPE svg PUBLIC "-//W3C//DTD SVG 20010904//EN"
 "http://www.w3.org/TR/2001/REC-SVG-20010904/DTD/svg10.dtd">
<svg version="1.0" xmlns="http://www.w3.org/2000/svg"
 width="120.000000pt" height="120.000000pt" viewBox="0 0 120.000000 120.000000"
 preserveAspectRatio="xMidYMid meet">

<g transform="translate(0.000000,120.000000) scale(0.100000,-0.100000)"
fill="#000000" stroke="none">
<path d="M140 978 c-68 -47 -89 -144 -45 -211 l18 -28 23 22 c21 20 22 24 9
43 -22 31 -18 71 11 105 21 26 33 31 69 31 36 0 48 -5 69 -31 l26 -31 0 -264
0 -264 30 0 30 0 0 264 0 264 26 31 c21 26 33 31 69 31 36 0 48 -5 69 -31 l26
-31 0 -264 0 -264 30 0 30 0 0 264 0 264 26 31 c21 26 33 31 69 31 36 0 48 -5
69 -31 l26 -31 0 -243 0 -244 -50 -7 c-47 -6 -50 -8 -50 -37 0 -30 0 -30 48
-24 l48 6 20 -42 c23 -49 75 -87 116 -87 26 0 29 3 26 27 -2 20 -9 29 -25 31
-24 3 -73 55 -73 76 0 7 29 31 64 53 102 65 170 177 183 299 7 66 -10 116 -52
153 -44 39 -97 49 -151 29 l-42 -15 -6 29 c-8 40 -41 85 -76 103 -46 24 -121
19 -164 -10 l-36 -24 -36 24 c-28 19 -50 25 -89 25 -39 0 -61 -6 -89 -25 l-36
-24 -36 24 c-49 34 -127 35 -174 3z m904 -188 c32 -32 28 -137 -8 -210 -30
-60 -86 -124 -128 -146 l-28 -15 0 163 c0 175 6 203 50 226 33 17 88 8 114
-18z"/>
</g>
</svg>
