<?xml version="1.0" encoding="UTF-8"?>
<svg version="1.1" xmlns="http://www.w3.org/2000/svg" width="120" height="120">
<path d="M0 0 C7.0514751 4.20239425 11.93864009 10.20943676 14.4375 18 C14.4375 19.65 14.4375 21.3 14.4375 23 C21.6975 23 28.9575 23 36.4375 23 C36.4375 24.98 36.4375 26.96 36.4375 29 C26.8675 29 17.2975 29 7.4375 29 C6.4475 23.06 6.4475 23.06 5.4375 17 C2.75969484 11.95942559 0.07070295 8.95797709 -5.19140625 6.66015625 C-11.39659633 4.93251684 -18.05587225 4.96686009 -24 7.5625 C-28.21726702 10.09636729 -30.23926561 12.62685291 -32.5625 17 C-33.2225 20.96 -33.8825 24.92 -34.5625 29 C-44.1325 29 -53.7025 29 -63.5625 29 C-63.5625 27.02 -63.5625 25.04 -63.5625 23 C-56.3025 23 -49.0425 23 -41.5625 23 C-41.2325 20.36 -40.9025 17.72 -40.5625 15 C-37.27385269 7.60338839 -31.44391666 2.44070833 -24.296875 -1.1328125 C-16.86311769 -3.49037553 -7.11510096 -3.25105382 0 0 Z " fill="#000000" transform="translate(73.5625,34)"/>
<path d="M0 0 C33 0 66 0 100 0 C100 1.98 100 3.96 100 6 C67 6 34 6 0 6 C0 4.02 0 2.04 0 0 Z " fill="#000000" transform="translate(10,82)"/>
</svg>
