<?xml version="1.0" encoding="UTF-8"?>
<svg version="1.1" xmlns="http://www.w3.org/2000/svg" width="120" height="120">
<path d="M0 0 C1.953125 0.9765625 1.953125 0.9765625 3.75 2.125 C6.78923929 4.37145672 6.78923929 4.37145672 9.6875 3.375 C10.450625 2.92125 11.21375 2.4675 12 2 C16.31635775 -0.44593606 20.11902716 -0.72677768 25 0 C26.96484375 0.96875 26.96484375 0.96875 28.75 2.125 C31.78923929 4.37145672 31.78923929 4.37145672 34.6875 3.375 C35.450625 2.92125 36.21375 2.4675 37 2 C41.3526162 -0.45230559 45.08498135 -0.78962595 50 0 C55.28627734 2.21328567 58.36808048 4.88720736 61 10 C61.38526917 12.69360352 61.38526917 12.69360352 61.40063477 15.62890625 C61.41397354 16.73355225 61.42731232 17.83819824 61.4410553 18.97631836 C61.44122902 20.75147827 61.44122902 20.75147827 61.44140625 22.5625 C61.46121803 24.39856812 61.46121803 24.39856812 61.48143005 26.27172852 C61.52231701 30.18117553 61.54399495 34.09038755 61.5625 38 C61.58629177 41.90954071 61.61442304 45.81886021 61.65428162 49.72827148 C61.67862007 52.15999652 61.69349367 54.59183878 61.69789124 57.02368164 C61.71317116 58.68065063 61.71317116 58.68065063 61.72875977 60.37109375 C61.73517235 61.8240686 61.73517235 61.8240686 61.74171448 63.30639648 C62.11025134 67.14978719 63.09708393 69.99675993 65.6875 72.875 C69.10144385 74.53583755 71.38757223 73.91952707 75 73 C77.08333333 72.08333333 77.08333333 72.08333333 78 70 C78.23639776 67.28142577 78.13476016 64.74012331 78 62 C77.505 62.99 77.505 62.99 77 64 C74.69 64 72.38 64 70 64 C70 58.39 70 52.78 70 47 C75.28 47 80.56 47 86 47 C86 49.31 86 51.62 86 54 C84.515 54.495 84.515 54.495 83 55 C83.4846875 55.70382813 83.969375 56.40765625 84.46875 57.1328125 C87.0329743 61.93419167 86.74470303 66.69574725 86 72 C84.30367862 76.13931413 81.86528858 78.39036486 78.25 80.9375 C73.40785017 82.52051052 68.89722353 83.00550699 64.0078125 81.30859375 C59.80883465 79.15504073 56.75032313 76.37134573 55 72 C54.4142396 67.78054521 54.44271937 63.59435848 54.4609375 59.33984375 C54.44914459 58.11721329 54.43735168 56.89458282 54.42520142 55.63490295 C54.38994775 51.73563873 54.38077156 47.83691056 54.375 43.9375 C54.35865512 40.03467985 54.33661342 36.13209912 54.30337524 32.22938538 C54.28375519 29.8032091 54.27440927 27.37692307 54.27645874 24.95066833 C54.26949982 23.84925003 54.26254089 22.74783173 54.25537109 21.61303711 C54.25411224 20.64740341 54.25285339 19.68176971 54.2515564 18.68687439 C53.8917875 14.84418211 52.90144438 12.00160487 50.3125 9.125 C46.89855615 7.46416245 44.61242777 8.08047293 41 9 C38.18469814 10.9707113 37.65757582 12.71631564 37 16 C36.88834598 17.67899911 36.82441792 19.36150062 36.79467773 21.04394531 C36.77473251 22.04468079 36.75478729 23.04541626 36.73423767 24.07647705 C36.70916893 25.68604279 36.70916893 25.68604279 36.68359375 27.328125 C36.66281265 28.43226746 36.64203156 29.53640991 36.62062073 30.67401123 C36.55526354 34.19927783 36.49630436 37.72461859 36.4375 41.25 C36.39430164 43.64063265 36.35068693 46.03125782 36.30664062 48.421875 C36.19959628 54.28117173 36.09780415 60.14054214 36 66 C34.02 66 32.04 66 30 66 C29.98786972 65.07704887 29.98786972 65.07704887 29.97549438 64.13545227 C29.8893929 57.72754353 29.7898866 51.31994213 29.68261719 44.91235352 C29.64434985 42.52145553 29.60949307 40.13050041 29.578125 37.73950195 C29.53242628 34.30138744 29.47443878 30.86366548 29.4140625 27.42578125 C29.40251129 26.35789871 29.39096008 25.29001617 29.37905884 24.18977356 C29.35918915 23.18911362 29.33931946 22.18845367 29.31884766 21.1574707 C29.30552399 20.28032913 29.29220032 19.40318756 29.2784729 18.49946594 C28.86229177 14.76398373 27.83262022 11.92513358 25.3125 9.125 C21.89855615 7.46416245 19.61242777 8.08047293 16 9 C13.18469814 10.9707113 12.65757582 12.71631564 12 16 C11.88834598 17.67899911 11.82441792 19.36150062 11.79467773 21.04394531 C11.77473251 22.04468079 11.75478729 23.04541626 11.73423767 24.07647705 C11.70916893 25.68604279 11.70916893 25.68604279 11.68359375 27.328125 C11.66281265 28.43226746 11.64203156 29.53640991 11.62062073 30.67401123 C11.55526354 34.19927783 11.49630436 37.72461859 11.4375 41.25 C11.39430164 43.64063265 11.35068693 46.03125782 11.30664062 48.421875 C11.19959628 54.28117173 11.09780415 60.14054214 11 66 C9.02 66 7.04 66 5 66 C4.99191315 65.38914047 4.98382629 64.77828094 4.97549438 64.14891052 C4.88922875 57.77313938 4.78971604 51.39767129 4.68261719 45.0222168 C4.644408 42.64499005 4.60954125 40.26770708 4.578125 37.89038086 C4.53229961 34.46708119 4.47433332 31.04416589 4.4140625 27.62109375 C4.40251129 26.56353378 4.39096008 25.50597382 4.37905884 24.41636658 C4.26966133 18.90781672 3.82932532 14.20876316 2 9 C-2.50926483 8.09618221 -5.80833021 7.44064479 -10.0625 9.4375 C-12.73829053 12.97644876 -12.57537553 15.70681335 -12 20 C-11.773125 20.763125 -11.54625 21.52625 -11.3125 22.3125 C-11 24 -11 24 -12.1875 25.8125 C-14 27 -14 27 -16.0625 26.9375 C-18.64008943 25.69027931 -18.96411806 24.6502434 -20 22 C-20.65793656 16.50699478 -20.70786166 11.58561011 -18.4375 6.5 C-13.0070102 0.93026687 -7.74031564 -1.45474017 0 0 Z " fill="#000000" transform="translate(27,19)"/>
</svg>
