<?xml version="1.0" standalone="no"?>
<!DOCTYPE svg PUBLIC "-//W3C//DTD SVG 20010904//EN"
 "http://www.w3.org/TR/2001/REC-SVG-20010904/DTD/svg10.dtd">
<svg version="1.0" xmlns="http://www.w3.org/2000/svg"
 width="120.000000pt" height="120.000000pt" viewBox="0 0 120.000000 120.000000"
 preserveAspectRatio="xMidYMid meet">

<g transform="translate(0.000000,120.000000) scale(0.100000,-0.100000)"
fill="#000000" stroke="none">
<path d="M320 936 l0 -164 -37 -7 c-54 -10 -129 -53 -169 -97 -40 -44 -41 -53
-13 -69 18 -9 26 -6 62 31 39 42 106 79 140 80 16 0 17 -16 17 -198 0 -247 8
-282 84 -358 114 -113 278 -113 392 0 60 61 84 122 84 217 l0 57 38 7 c53 10
128 53 168 97 40 44 41 53 13 69 -18 9 -26 6 -62 -31 -39 -42 -106 -79 -139
-80 -17 0 -18 21 -18 305 l0 305 -30 0 -30 0 0 -305 c0 -343 5 -324 -75 -285
-52 25 -72 43 -123 112 -60 81 -128 129 -205 143 l-37 7 0 164 0 164 -30 0
-30 0 0 -164z m135 -246 c53 -25 74 -44 123 -112 59 -81 127 -129 205 -143
l37 -7 0 -63 c0 -87 -37 -158 -105 -200 -41 -25 -58 -30 -115 -30 -90 0 -152
37 -192 114 -28 53 -28 53 -28 257 0 230 -3 222 75 184z"/>
</g>
</svg>
