<?xml version="1.0" encoding="UTF-8"?>
<!DOCTYPE svg PUBLIC "-//W3C//DTD SVG 1.1//EN" "http://www.w3.org/Graphics/SVG/1.1/DTD/svg11.dtd">
<svg xmlns="http://www.w3.org/2000/svg" version="1.1" width="120px" height="120px" style="shape-rendering:geometricPrecision; text-rendering:geometricPrecision; image-rendering:optimizeQuality; fill-rule:evenodd; clip-rule:evenodd" xmlns:xlink="http://www.w3.org/1999/xlink">
<g><path style="opacity:1" fill="#000000" d="M 44.5,41.5 C 53.9772,41.1327 56.9772,45.2994 53.5,54C 44.3359,58.1478 40.1693,55.3144 41,45.5C 41.6897,43.6498 42.8564,42.3164 44.5,41.5 Z"/></g>
<g><path style="opacity:1" fill="#000000" d="M 68.5,41.5 C 77.3298,40.1621 80.8298,43.8288 79,52.5C 74.6667,56.5 70.3333,56.5 66,52.5C 64.8118,48.2586 65.6451,44.5919 68.5,41.5 Z"/></g>
<g><path style="opacity:1" fill="#000000" d="M 18.5,64.5 C 45.8333,64.5 73.1667,64.5 100.5,64.5C 100.5,68.5 100.5,72.5 100.5,76.5C 73.1667,76.5 45.8333,76.5 18.5,76.5C 18.5,72.5 18.5,68.5 18.5,64.5 Z"/></g>
</svg>
