<?xml version="1.0" encoding="UTF-8"?>
<!DOCTYPE svg PUBLIC "-//W3C//DTD SVG 1.1//EN" "http://www.w3.org/Graphics/SVG/1.1/DTD/svg11.dtd">
<svg xmlns="http://www.w3.org/2000/svg" version="1.1" width="120px" height="120px" style="shape-rendering:geometricPrecision; text-rendering:geometricPrecision; image-rendering:optimizeQuality; fill-rule:evenodd; clip-rule:evenodd" xmlns:xlink="http://www.w3.org/1999/xlink">
<g><path style="opacity:1" fill="#000000" d="M 57.5,30.5 C 64.706,30.2021 67.8727,33.5355 67,40.5C 63.4546,46.2087 59.1213,46.8754 54,42.5C 51.4544,37.3402 52.6211,33.3402 57.5,30.5 Z"/></g>
<g><path style="opacity:1" fill="#000000" d="M 18.5,53.5 C 45.8333,53.5 73.1667,53.5 100.5,53.5C 100.5,57.5 100.5,61.5 100.5,65.5C 73.1667,65.5 45.8333,65.5 18.5,65.5C 18.5,61.5 18.5,57.5 18.5,53.5 Z"/></g>
<g><path style="opacity:1" fill="#000000" d="M 18.5,74.5 C 45.8333,74.5 73.1667,74.5 100.5,74.5C 100.5,78.8333 100.5,83.1667 100.5,87.5C 73.1667,87.5 45.8333,87.5 18.5,87.5C 18.5,83.1667 18.5,78.8333 18.5,74.5 Z"/></g>
</svg>
