<?xml version="1.0" encoding="UTF-8"?>
<!DOCTYPE svg PUBLIC "-//W3C//DTD SVG 1.1//EN" "http://www.w3.org/Graphics/SVG/1.1/DTD/svg11.dtd">
<svg xmlns="http://www.w3.org/2000/svg" version="1.1" width="120px" height="120px" style="shape-rendering:geometricPrecision; text-rendering:geometricPrecision; image-rendering:optimizeQuality; fill-rule:evenodd; clip-rule:evenodd" xmlns:xlink="http://www.w3.org/1999/xlink">
<g><path style="opacity:1" fill="#000000" d="M 31.5,51.5 C 40.048,54.313 41.3814,59.1463 35.5,66C 26.4345,66.9394 23.2678,63.1061 26,54.5C 27.7189,53.1312 29.5522,52.1312 31.5,51.5 Z"/></g>
<g><path style="opacity:1" fill="#000000" d="M 50.5,51.5 C 56.9505,52.3873 59.4505,56.0539 58,62.5C 52.8332,68.0923 48.1666,67.759 44,61.5C 42.9873,55.9849 45.154,52.6516 50.5,51.5 Z"/></g>
<g><path style="opacity:1" fill="#000000" d="M 69.5,51.5 C 78.0415,54.4045 79.3748,59.2378 73.5,66C 63.8418,67.5145 60.6751,63.6812 64,54.5C 65.7189,53.1312 67.5522,52.1312 69.5,51.5 Z"/></g>
<g><path style="opacity:1" fill="#000000" d="M 87.5,51.5 C 94.173,52.3375 96.673,56.0042 95,62.5C 91.134,67.4159 86.8007,67.7492 82,63.5C 80.0357,57.5323 81.8691,53.5323 87.5,51.5 Z"/></g>
</svg>
