<?xml version="1.0" encoding="UTF-8"?>
<!DOCTYPE svg PUBLIC "-//W3C//DTD SVG 1.1//EN" "http://www.w3.org/Graphics/SVG/1.1/DTD/svg11.dtd">
<svg xmlns="http://www.w3.org/2000/svg" version="1.1" width="120px" height="120px" style="shape-rendering:geometricPrecision; text-rendering:geometricPrecision; image-rendering:optimizeQuality; fill-rule:evenodd; clip-rule:evenodd" xmlns:xlink="http://www.w3.org/1999/xlink">
<g><path style="opacity:1" fill="#000000" d="M 39.5,51.5 C 48.048,54.313 49.3814,59.1463 43.5,66C 34.4345,66.9394 31.2678,63.1061 34,54.5C 35.7189,53.1312 37.5522,52.1312 39.5,51.5 Z"/></g>
<g><path style="opacity:1" fill="#000000" d="M 59.5,51.5 C 65.9505,52.3873 68.4505,56.0539 67,62.5C 64.487,66.2115 60.987,67.3782 56.5,66C 50.7991,59.647 51.7991,54.8136 59.5,51.5 Z"/></g>
<g><path style="opacity:1" fill="#000000" d="M 79.5,51.5 C 86.173,52.3375 88.673,56.0042 87,62.5C 83.134,67.4159 78.8007,67.7492 74,63.5C 72.0357,57.5323 73.8691,53.5323 79.5,51.5 Z"/></g>
</svg>
