<?xml version="1.0" standalone="no"?>
<!DOCTYPE svg PUBLIC "-//W3C//DTD SVG 20010904//EN"
 "http://www.w3.org/TR/2001/REC-SVG-20010904/DTD/svg10.dtd">
<svg version="1.0" xmlns="http://www.w3.org/2000/svg"
 width="665.000000pt" height="375.000000pt" viewBox="0 0 665.000000 375.000000"
 preserveAspectRatio="xMidYMid meet">

<g transform="translate(0.000000,375.000000) scale(0.100000,-0.100000)"
fill="#000000" stroke="none">
<path d="M300 2740 l0 -430 1284 0 c836 0 1287 3 1291 10 3 5 6 198 6 427 l0
418 -1290 3 -1291 2 0 -430z"/>
<path d="M3770 2740 l0 -430 1288 2 1287 3 3 428 2 427 -1290 0 -1290 0 0
-430z"/>
<path d="M298 1023 c-2 -230 -1 -424 1 -430 2 -10 269 -13 1292 -13 l1289 0 1
23 c0 12 1 204 0 427 l0 405 -1291 3 -1290 2 -2 -417z"/>
<path d="M3770 1400 c0 -22 0 -209 0 -415 0 -206 0 -382 0 -390 0 -13 150 -15
1290 -15 l1290 0 0 430 0 430 -1290 0 -1290 0 0 -40z"/>
</g>
</svg>
