<?xml version="1.0" standalone="no"?>
<!DOCTYPE svg PUBLIC "-//W3C//DTD SVG 20010904//EN"
 "http://www.w3.org/TR/2001/REC-SVG-20010904/DTD/svg10.dtd">
<svg version="1.0" xmlns="http://www.w3.org/2000/svg"
 width="665.000000pt" height="375.000000pt" viewBox="0 0 665.000000 375.000000"
 preserveAspectRatio="xMidYMid meet">

<g transform="translate(0.000000,375.000000) scale(0.100000,-0.100000)"
fill="#000000" stroke="none">
<path d="M300 2747 l0 -424 1723 -5 c947 -2 2307 -2 3022 1 l1300 6 3 409 c1
293 -1 413 -9 422 -10 12 -490 14 -3025 14 l-3014 0 0 -423z"/>
<path d="M307 1433 c-4 -3 -7 -194 -7 -424 0 -389 1 -418 17 -422 15 -4 6001
-2 6026 2 4 0 6 191 5 424 l-3 422 -3016 3 c-1659 1 -3019 -1 -3022 -5z"/>
</g>
</svg>
