<?xml version="1.0" encoding="UTF-8"?>
<svg version="1.1" xmlns="http://www.w3.org/2000/svg" width="500" height="500">
<path d="M0 0 C33.99 0 67.98 0 103 0 C103 34.32 103 68.64 103 104 C69.01 104 35.02 104 0 104 C0 69.68 0 35.36 0 0 Z " fill="#000000" transform="translate(300,299)"/>
<path d="M0 0 C33.99 0 67.98 0 103 0 C103 34.32 103 68.64 103 104 C69.01 104 35.02 104 0 104 C0 69.68 0 35.36 0 0 Z " fill="#000000" transform="translate(97,299)"/>
<path d="M0 0 C33.99 0 67.98 0 103 0 C103 34.32 103 68.64 103 104 C69.01 104 35.02 104 0 104 C0 69.68 0 35.36 0 0 Z " fill="#000000" transform="translate(300,97)"/>
<path d="M0 0 C33.99 0 67.98 0 103 0 C103 34.32 103 68.64 103 104 C69.01 104 35.02 104 0 104 C0 69.68 0 35.36 0 0 Z " fill="#000000" transform="translate(97,97)"/>
</svg>
