<?xml version="1.0" encoding="UTF-8"?>
<!DOCTYPE svg PUBLIC "-//W3C//DTD SVG 1.1//EN" "http://www.w3.org/Graphics/SVG/1.1/DTD/svg11.dtd">
<svg xmlns="http://www.w3.org/2000/svg" version="1.1" width="500px" height="500px" style="shape-rendering:geometricPrecision; text-rendering:geometricPrecision; image-rendering:optimizeQuality; fill-rule:evenodd; clip-rule:evenodd" xmlns:xlink="http://www.w3.org/1999/xlink">
<g><path style="opacity:1" fill="#000000" d="M 298.5,70.5 C 349.664,69.5011 400.997,69.1678 452.5,69.5C 452.5,89.1667 452.5,108.833 452.5,128.5C 317.167,128.5 181.833,128.5 46.5,128.5C 46.5,108.833 46.5,89.1667 46.5,69.5C 130.501,69.5909 214.501,69.9243 298.5,70.5 Z"/></g>
<g><path style="opacity:1" fill="#070707" d="M 298.5,70.5 C 299.289,70.7828 299.956,71.2828 300.5,72C 266.833,72.6667 233.167,72.6667 199.5,72C 232.669,71.8325 265.669,71.3325 298.5,70.5 Z"/></g>
<g><path style="opacity:1" fill="#000000" d="M 201.5,169.5 C 201.082,170.222 200.416,170.722 199.5,171C 232.208,171.174 264.875,171.674 297.5,172.5C 298.386,171.675 298.719,170.675 298.5,169.5C 349.833,169.5 401.167,169.5 452.5,169.5C 452.5,188.167 452.5,206.833 452.5,225.5C 317.167,225.5 181.833,225.5 46.5,225.5C 46.5,206.833 46.5,188.167 46.5,169.5C 98.1667,169.5 149.833,169.5 201.5,169.5 Z"/></g>
<g><path style="opacity:1" fill="#050505" d="M 201.5,169.5 C 233.833,169.5 266.167,169.5 298.5,169.5C 298.719,170.675 298.386,171.675 297.5,172.5C 264.875,171.674 232.208,171.174 199.5,171C 200.416,170.722 201.082,170.222 201.5,169.5 Z"/></g>
<g><path style="opacity:1" fill="#000000" d="M 46.5,273.5 C 97.8333,273.5 149.167,273.5 200.5,273.5C 200.5,292.167 200.5,310.833 200.5,329.5C 149.167,329.5 97.8333,329.5 46.5,329.5C 46.5,310.833 46.5,292.167 46.5,273.5 Z"/></g>
<g><path style="opacity:1" fill="#000000" d="M 298.5,273.5 C 349.833,273.5 401.167,273.5 452.5,273.5C 452.5,292.167 452.5,310.833 452.5,329.5C 401.167,329.5 349.833,329.5 298.5,329.5C 298.5,310.833 298.5,292.167 298.5,273.5 Z"/></g>
<g><path style="opacity:1" fill="#000000" d="M 46.5,371.5 C 181.833,371.5 317.167,371.5 452.5,371.5C 452.5,390.833 452.5,410.167 452.5,429.5C 317.167,429.5 181.833,429.5 46.5,429.5C 46.5,410.167 46.5,390.833 46.5,371.5 Z"/></g>
</svg>
