<?xml version="1.0" encoding="UTF-8"?>
<svg version="1.1" xmlns="http://www.w3.org/2000/svg" width="500" height="500">
<path d="M0 0 C0.92575817 0.0037972 1.85151633 0.00759441 2.80532777 0.01150668 C4.40495439 0.01075862 4.40495439 0.01075862 6.03689671 0.00999546 C7.80826703 0.02457041 7.80826703 0.02457041 9.61542261 0.0394398 C10.86261493 0.0418145 12.10980725 0.0441892 13.39479327 0.04663587 C16.86783055 0.05351931 20.34070331 0.07297209 23.81367719 0.09439671 C27.55462128 0.11530051 31.29559586 0.1246624 35.03658044 0.13540232 C41.52180889 0.15561152 48.00697278 0.18318771 54.49215066 0.21572077 C63.86870631 0.26274793 73.24527853 0.29873735 82.6218919 0.33200403 C97.83358861 0.38627367 113.04523436 0.44951127 128.25687158 0.51835215 C143.03647749 0.58521873 157.81609133 0.64788435 172.59573877 0.70487559 C173.50624697 0.70838803 174.41675518 0.71190047 175.35485454 0.71551935 C179.92245474 0.73311366 184.49005525 0.75062512 189.05765593 0.76809537 C226.97047657 0.9132124 264.8832043 1.07451363 302.79593408 1.24198496 C302.79593408 35.56198496 302.79593408 69.88198496 302.79593408 105.24198496 C201.81593408 105.24198496 100.83593408 105.24198496 -3.20406592 105.24198496 C-3.53406592 71.25198496 -3.86406592 37.26198496 -4.20406592 2.24198496 C-2.20406592 0.24198496 -2.20406592 0.24198496 0 0 Z " fill="#000000" transform="translate(100.20406591892242,95.75801503658295)"/>
<path d="M0 0 C33.99 0 67.98 0 103 0 C104.15284593 36.89106968 104.15284593 36.89106968 104.1328125 49.60546875 C104.13349218 51.04991166 104.13446758 52.49435446 104.13571167 53.938797 C104.13714484 56.88084058 104.13517339 59.82285278 104.13037109 62.76489258 C104.12453077 66.52334782 104.12806759 70.28173385 104.13394356 74.04018688 C104.13754972 76.98528066 104.13641276 79.93035778 104.13381577 82.87545204 C104.13315394 84.26407187 104.13394856 85.65269326 104.13629532 87.04131126 C104.1388382 88.95747218 104.13427447 90.87363854 104.12939453 92.78979492 C104.12859894 93.87242111 104.12780334 94.9550473 104.12698364 96.07048035 C104 99 104 99 103 104 C69.01 104 35.02 104 0 104 C0 69.68 0 35.36 0 0 Z " fill="#010101" transform="translate(97,299)"/>
<path d="M0 0 C33.99 0 67.98 0 103 0 C103 34.32 103 68.64 103 104 C69.01 104 35.02 104 0 104 C-0.60966318 94.24538906 -1.15228967 84.72032221 -1.09375 74.984375 C-1.09016479 73.80276794 -1.08657959 72.62116089 -1.08288574 71.40374756 C-1.01939062 57.01739843 -0.76096791 42.63384234 -0.5 28.25 C-0.335 18.9275 -0.17 9.605 0 0 Z " fill="#000000" transform="translate(300,299)"/>
<path d="M0 0 C94.71 0 189.42 0 287 0 C287 34.32 287 68.64 287 104 C186.02 104 85.04 104 -19 104 C-19 103.67 -19 103.34 -19 103 C81.65 103 182.3 103 286 103 C292.359513 50.72336818 292.359513 50.72336818 284 2 C190.28 1.67 96.56 1.34 0 1 C0 0.67 0 0.34 0 0 Z " fill="#404040" transform="translate(116,97)"/>
</svg>
