<?xml version="1.0" encoding="UTF-8"?>
<svg version="1.1" xmlns="http://www.w3.org/2000/svg" width="500" height="500">
<path d="M0 0 C2.82330418 -0.34404755 2.82330418 -0.34404755 6.54701233 -0.30065918 C7.5846282 -0.2952082 7.5846282 -0.2952082 8.643206 -0.2896471 C11.01254545 -0.27398895 13.38113111 -0.23709016 15.75024414 -0.20117188 C17.48380053 -0.18629466 19.21737147 -0.17304111 20.95095158 -0.16124725 C24.8310553 -0.13327423 28.71099473 -0.09751293 32.59099197 -0.0574646 C39.32858777 0.00796067 46.06605558 0.03247466 52.80392456 0.05053711 C54.61073205 0.05546008 54.61073205 0.05546008 56.45404071 0.0604825 C58.96172199 0.06724843 61.46940342 0.07395887 63.97708499 0.08061695 C70.64289843 0.09988171 77.30868311 0.12626118 83.97447205 0.15246582 C85.36752788 0.15789262 86.76058373 0.1633131 88.15363961 0.1687274 C90.27592805 0.17698172 92.39821644 0.18524528 94.52050471 0.19354048 C101.83759744 0.22212935 109.15469348 0.24982936 116.47178973 0.27750319 C129.51106193 0.32684062 142.55033155 0.37682702 155.58959961 0.42724609 C168.22468942 0.47610088 180.85978041 0.52463475 193.49487305 0.57275391 C194.27916765 0.5757409 195.06346226 0.5787279 195.87152337 0.58180541 C199.80773156 0.59679458 203.74393978 0.61177762 207.68014801 0.62675762 C240.12010236 0.75022199 272.560052 0.87487387 305 1 C305 35.32 305 69.64 305 105 C204.02 105 103.04 105 -1 105 C-2 3 -2 3 0 0 Z " fill="#020202" transform="translate(98,298)"/>
<path d="M0 0 C33.99 0 67.98 0 103 0 C104.12504297 6.75025781 104.12504297 6.75025781 104.12698364 10.17382812 C104.13121338 11.33434692 104.13121338 11.33434692 104.13552856 12.51831055 C104.13249222 13.76221558 104.13249222 13.76221558 104.12939453 15.03125 C104.13202301 16.36410034 104.13202301 16.36410034 104.13470459 17.72387695 C104.13909129 20.64927141 104.13619631 23.57460497 104.1328125 26.5 C104.13348645 28.53971366 104.13445724 30.57942724 104.13571167 32.61914062 C104.13718433 36.88933071 104.13504793 41.15949985 104.13037109 45.4296875 C104.12467408 50.89719307 104.12795539 56.36464955 104.13394356 61.83215332 C104.13756079 66.04264698 104.13640523 70.25312904 104.13381577 74.46362305 C104.13314972 76.47941087 104.13396365 78.49519975 104.13629532 80.51098633 C104.1388409 83.33026917 104.13495435 86.14947302 104.12939453 88.96875 C104.13141876 89.79802002 104.13344299 90.62729004 104.13552856 91.48168945 C104.13270874 92.25536865 104.12988892 93.02904785 104.12698364 93.82617188 C104.1264181 94.82384583 104.1264181 94.82384583 104.12584114 95.8416748 C103.96605283 98.58223431 103.45131037 101.29213781 103 104 C69.01 104 35.02 104 0 104 C0 69.68 0 35.36 0 0 Z " fill="#020202" transform="translate(97,97)"/>
<path d="M0 0 C33.99 0 67.98 0 103 0 C103 34.32 103 68.64 103 104 C92.790625 104.165 82.58125 104.33 72.0625 104.5 C68.89664307 104.55220703 65.73078613 104.60441406 62.46899414 104.65820312 C49.70785842 104.8634511 36.94646453 105.05018048 24.18359375 105.09375 C23.23138443 105.1002356 22.27917511 105.10672119 21.29811096 105.11340332 C14.10589081 105.11817943 7.23344653 104.55641896 0 104 C0 69.68 0 35.36 0 0 Z " fill="#000000" transform="translate(300,97)"/>
</svg>
