<?xml version="1.0" encoding="UTF-8"?>
<!DOCTYPE svg PUBLIC "-//W3C//DTD SVG 1.1//EN" "http://www.w3.org/Graphics/SVG/1.1/DTD/svg11.dtd">
<svg xmlns="http://www.w3.org/2000/svg" version="1.1" width="500px" height="500px" style="shape-rendering:geometricPrecision; text-rendering:geometricPrecision; image-rendering:optimizeQuality; fill-rule:evenodd; clip-rule:evenodd" xmlns:xlink="http://www.w3.org/1999/xlink">
<g><path style="opacity:1" fill="#000000" d="M 46.5,69.5 C 97.8333,69.5 149.167,69.5 200.5,69.5C 200.5,88.8333 200.5,108.167 200.5,127.5C 149.167,127.5 97.8333,127.5 46.5,127.5C 46.5,108.167 46.5,88.8333 46.5,69.5 Z"/></g>
<g><path style="opacity:1" fill="#000000" d="M 298.5,69.5 C 349.833,69.5 401.167,69.5 452.5,69.5C 452.5,88.8333 452.5,108.167 452.5,127.5C 401.167,127.5 349.833,127.5 298.5,127.5C 298.5,108.167 298.5,88.8333 298.5,69.5 Z"/></g>
<g><path style="opacity:1" fill="#000000" d="M 200.5,169.5 C 200.389,170.117 200.056,170.617 199.5,171C 232.405,171.17 265.238,171.67 298,172.5C 298.47,171.423 298.303,170.423 297.5,169.5C 349.167,169.5 400.833,169.5 452.5,169.5C 452.5,188.167 452.5,206.833 452.5,225.5C 317.167,225.5 181.833,225.5 46.5,225.5C 46.5,206.833 46.5,188.167 46.5,169.5C 97.8333,169.5 149.167,169.5 200.5,169.5 Z"/></g>
<g><path style="opacity:1" fill="#060606" d="M 200.5,169.5 C 232.833,169.5 265.167,169.5 297.5,169.5C 298.303,170.423 298.47,171.423 298,172.5C 265.238,171.67 232.405,171.17 199.5,171C 200.056,170.617 200.389,170.117 200.5,169.5 Z"/></g>
<g><path style="opacity:1" fill="#000000" d="M 46.5,273.5 C 181.833,273.5 317.167,273.5 452.5,273.5C 452.5,292.167 452.5,310.833 452.5,329.5C 317.167,329.5 181.833,329.5 46.5,329.5C 46.5,310.833 46.5,292.167 46.5,273.5 Z"/></g>
<g><path style="opacity:1" fill="#000000" d="M 285.5,429.5 C 289.647,428.675 293.981,428.175 298.5,428C 265.5,427.333 232.5,427.333 199.5,428C 200.056,428.383 200.389,428.883 200.5,429.5C 149.167,429.5 97.8333,429.5 46.5,429.5C 46.5,410.167 46.5,390.833 46.5,371.5C 181.833,371.5 317.167,371.5 452.5,371.5C 452.5,390.833 452.5,410.167 452.5,429.5C 396.833,429.5 341.167,429.5 285.5,429.5 Z"/></g>
<g><path style="opacity:1" fill="#0a0a0a" d="M 285.5,429.5 C 257.167,429.5 228.833,429.5 200.5,429.5C 200.389,428.883 200.056,428.383 199.5,428C 232.5,427.333 265.5,427.333 298.5,428C 293.981,428.175 289.647,428.675 285.5,429.5 Z"/></g>
</svg>
