<?xml version="1.0" encoding="UTF-8"?>
<!DOCTYPE svg PUBLIC "-//W3C//DTD SVG 1.1//EN" "http://www.w3.org/Graphics/SVG/1.1/DTD/svg11.dtd">
<svg xmlns="http://www.w3.org/2000/svg" version="1.1" width="500px" height="500px" style="shape-rendering:geometricPrecision; text-rendering:geometricPrecision; image-rendering:optimizeQuality; fill-rule:evenodd; clip-rule:evenodd" xmlns:xlink="http://www.w3.org/1999/xlink">
<g><path style="opacity:1" fill="#000000" d="M 298.5,127.5 C 298.53,126.503 298.03,125.836 297,125.5C 264.36,126.156 231.86,126.823 199.5,127.5C 148.5,127.5 97.5,127.5 46.5,127.5C 46.5,108.167 46.5,88.8333 46.5,69.5C 181.833,69.5 317.167,69.5 452.5,69.5C 452.5,88.8333 452.5,108.167 452.5,127.5C 401.167,127.5 349.833,127.5 298.5,127.5 Z"/></g>
<g><path style="opacity:1" fill="#050605" d="M 298.5,127.5 C 265.5,127.5 232.5,127.5 199.5,127.5C 231.86,126.823 264.36,126.156 297,125.5C 298.03,125.836 298.53,126.503 298.5,127.5 Z"/></g>
<g><path style="opacity:1" fill="#000000" d="M 198.5,169.5 C 198.611,170.117 198.944,170.617 199.5,171C 216.167,171.167 232.833,171.333 249.5,171.5C 266.514,171.5 283.18,170.833 299.5,169.5C 350.5,169.5 401.5,169.5 452.5,169.5C 452.5,188.167 452.5,206.833 452.5,225.5C 317.167,225.5 181.833,225.5 46.5,225.5C 46.5,206.833 46.5,188.167 46.5,169.5C 97.1667,169.5 147.833,169.5 198.5,169.5 Z"/></g>
<g><path style="opacity:1" fill="#0d0d0d" d="M 198.5,169.5 C 232.167,169.5 265.833,169.5 299.5,169.5C 283.18,170.833 266.514,171.5 249.5,171.5C 232.833,171.333 216.167,171.167 199.5,171C 198.944,170.617 198.611,170.117 198.5,169.5 Z"/></g>
<g><path style="opacity:1" fill="#000000" d="M 46.5,273.5 C 97.8333,273.5 149.167,273.5 200.5,273.5C 200.5,292.167 200.5,310.833 200.5,329.5C 149.167,329.5 97.8333,329.5 46.5,329.5C 46.5,310.833 46.5,292.167 46.5,273.5 Z"/></g>
<g><path style="opacity:1" fill="#000000" d="M 298.5,273.5 C 349.833,273.5 401.167,273.5 452.5,273.5C 452.5,292.167 452.5,310.833 452.5,329.5C 401.167,329.5 349.833,329.5 298.5,329.5C 298.5,310.833 298.5,292.167 298.5,273.5 Z"/></g>
<g><path style="opacity:1" fill="#000000" d="M 46.5,371.5 C 97.8333,371.5 149.167,371.5 200.5,371.5C 200.5,390.833 200.5,410.167 200.5,429.5C 149.167,429.5 97.8333,429.5 46.5,429.5C 46.5,410.167 46.5,390.833 46.5,371.5 Z"/></g>
<g><path style="opacity:1" fill="#000000" d="M 298.5,371.5 C 349.833,371.5 401.167,371.5 452.5,371.5C 452.5,390.833 452.5,410.167 452.5,429.5C 401.167,429.5 349.833,429.5 298.5,429.5C 298.5,410.167 298.5,390.833 298.5,371.5 Z"/></g>
</svg>
