<?xml version="1.0" encoding="UTF-8"?>
<!DOCTYPE svg PUBLIC "-//W3C//DTD SVG 1.1//EN" "http://www.w3.org/Graphics/SVG/1.1/DTD/svg11.dtd">
<svg xmlns="http://www.w3.org/2000/svg" version="1.1" width="500px" height="500px" style="shape-rendering:geometricPrecision; text-rendering:geometricPrecision; image-rendering:optimizeQuality; fill-rule:evenodd; clip-rule:evenodd" xmlns:xlink="http://www.w3.org/1999/xlink">
<g><path style="opacity:1" fill="#000000" d="M 200.5,85.5 C 199.341,95.992 199.175,106.659 200,117.5C 200.198,115.618 200.698,113.952 201.5,112.5C 201.405,117.419 201.072,122.419 200.5,127.5C 149.167,127.5 97.8333,127.5 46.5,127.5C 46.5,108.167 46.5,88.8333 46.5,69.5C 97.8333,69.5 149.167,69.5 200.5,69.5C 200.5,74.8333 200.5,80.1667 200.5,85.5 Z"/></g>
<g><path style="opacity:1" fill="#000000" d="M 298.5,69.5 C 349.833,69.5 401.167,69.5 452.5,69.5C 452.5,88.8333 452.5,108.167 452.5,127.5C 401.167,127.5 349.833,127.5 298.5,127.5C 298.5,108.167 298.5,88.8333 298.5,69.5 Z"/></g>
<g><path style="opacity:1" fill="#323232" d="M 200.5,85.5 C 201.493,94.3178 201.827,103.318 201.5,112.5C 200.698,113.952 200.198,115.618 200,117.5C 199.175,106.659 199.341,95.992 200.5,85.5 Z"/></g>
<g><path style="opacity:1" fill="#000000" d="M 201.5,185.5 C 200.883,185.389 200.383,185.056 200,184.5C 199.173,197.673 199.34,210.673 200.5,223.5C 149.511,225.496 98.1775,226.162 46.5,225.5C 46.5,206.833 46.5,188.167 46.5,169.5C 97.8333,169.5 149.167,169.5 200.5,169.5C 200.949,175.022 201.282,180.355 201.5,185.5 Z"/></g>
<g><path style="opacity:1" fill="#000000" d="M 298.5,169.5 C 349.833,169.5 401.167,169.5 452.5,169.5C 452.5,188.167 452.5,206.833 452.5,225.5C 401.167,225.5 349.833,225.5 298.5,225.5C 298.5,206.833 298.5,188.167 298.5,169.5 Z"/></g>
<g><path style="opacity:1" fill="#434343" d="M 201.5,185.5 C 201.813,198.246 201.48,210.913 200.5,223.5C 199.34,210.673 199.173,197.673 200,184.5C 200.383,185.056 200.883,185.389 201.5,185.5 Z"/></g>
<g><path style="opacity:1" fill="#000000" d="M 46.5,273.5 C 97.8333,273.5 149.167,273.5 200.5,273.5C 200.5,292.167 200.5,310.833 200.5,329.5C 149.167,329.5 97.8333,329.5 46.5,329.5C 46.5,310.833 46.5,292.167 46.5,273.5 Z"/></g>
<g><path style="opacity:1" fill="#000000" d="M 298.5,273.5 C 349.833,273.5 401.167,273.5 452.5,273.5C 452.5,292.167 452.5,310.833 452.5,329.5C 401.167,329.5 349.833,329.5 298.5,329.5C 298.5,310.833 298.5,292.167 298.5,273.5 Z"/></g>
<g><path style="opacity:1" fill="#000000" d="M 46.5,371.5 C 181.833,371.5 317.167,371.5 452.5,371.5C 452.5,390.833 452.5,410.167 452.5,429.5C 317.167,429.5 181.833,429.5 46.5,429.5C 46.5,410.167 46.5,390.833 46.5,371.5 Z"/></g>
</svg>
