<?xml version="1.0" encoding="UTF-8"?>
<!DOCTYPE svg PUBLIC "-//W3C//DTD SVG 1.1//EN" "http://www.w3.org/Graphics/SVG/1.1/DTD/svg11.dtd">
<svg xmlns="http://www.w3.org/2000/svg" version="1.1" width="500px" height="500px" style="shape-rendering:geometricPrecision; text-rendering:geometricPrecision; image-rendering:optimizeQuality; fill-rule:evenodd; clip-rule:evenodd" xmlns:xlink="http://www.w3.org/1999/xlink">
<g><path style="opacity:1" fill="#000000" d="M 46.5,69.5 C 97.8333,69.5 149.167,69.5 200.5,69.5C 200.5,88.8333 200.5,108.167 200.5,127.5C 149.167,127.5 97.8333,127.5 46.5,127.5C 46.5,108.167 46.5,88.8333 46.5,69.5 Z"/></g>
<g><path style="opacity:1" fill="#000000" d="M 298.5,69.5 C 349.833,69.5 401.167,69.5 452.5,69.5C 452.5,88.8333 452.5,108.167 452.5,127.5C 401.167,127.5 349.833,127.5 298.5,127.5C 298.5,108.167 298.5,88.8333 298.5,69.5 Z"/></g>
<g><path style="opacity:1" fill="#000000" d="M 200.5,169.5 C 200.389,170.117 200.056,170.617 199.5,171C 232.208,171.174 264.875,171.674 297.5,172.5C 298.386,171.675 298.719,170.675 298.5,169.5C 349.833,169.5 401.167,169.5 452.5,169.5C 452.5,188.167 452.5,206.833 452.5,225.5C 317.167,225.5 181.833,225.5 46.5,225.5C 46.5,206.833 46.5,188.167 46.5,169.5C 97.8333,169.5 149.167,169.5 200.5,169.5 Z"/></g>
<g><path style="opacity:1" fill="#060606" d="M 200.5,169.5 C 233.167,169.5 265.833,169.5 298.5,169.5C 298.719,170.675 298.386,171.675 297.5,172.5C 264.875,171.674 232.208,171.174 199.5,171C 200.056,170.617 200.389,170.117 200.5,169.5 Z"/></g>
<g><path style="opacity:1" fill="#070707" d="M 448.5,171.5 C 449.239,171.369 449.906,171.536 450.5,172C 449.167,172.667 449.167,173.333 450.5,174C 448.023,174.368 447.356,173.535 448.5,171.5 Z"/></g>
<g><path style="opacity:1" fill="#000000" d="M 46.5,273.5 C 181.833,273.5 317.167,273.5 452.5,273.5C 452.5,292.167 452.5,310.833 452.5,329.5C 317.167,329.5 181.833,329.5 46.5,329.5C 46.5,310.833 46.5,292.167 46.5,273.5 Z"/></g>
<g><path style="opacity:1" fill="#070707" d="M 448.5,275.5 C 450.085,276.002 450.585,277.002 450,278.5C 448.961,277.756 448.461,276.756 448.5,275.5 Z"/></g>
<g><path style="opacity:1" fill="#000000" d="M 46.5,371.5 C 97.8333,371.5 149.167,371.5 200.5,371.5C 200.5,390.833 200.5,410.167 200.5,429.5C 149.167,429.5 97.8333,429.5 46.5,429.5C 46.5,410.167 46.5,390.833 46.5,371.5 Z"/></g>
<g><path style="opacity:1" fill="#000000" d="M 298.5,371.5 C 349.833,371.5 401.167,371.5 452.5,371.5C 452.5,390.833 452.5,410.167 452.5,429.5C 401.167,429.5 349.833,429.5 298.5,429.5C 298.5,410.167 298.5,390.833 298.5,371.5 Z"/></g>
</svg>
