<?xml version="1.0" encoding="UTF-8"?>
<svg version="1.1" xmlns="http://www.w3.org/2000/svg" width="500" height="500">
<path d="M0 0 C1.59478995 -0.00483667 1.59478995 -0.00483667 3.22179788 -0.00977105 C4.40426003 -0.00822245 5.58672218 -0.00667385 6.80501652 -0.00507832 C8.67240666 -0.00847665 8.67240666 -0.00847665 10.57752186 -0.01194364 C14.04889835 -0.01720229 17.5202233 -0.01792455 20.99160016 -0.01674926 C24.72921921 -0.01654601 28.4668304 -0.02205677 32.20444584 -0.02680683 C39.53297558 -0.03513031 46.86149727 -0.03786243 54.19003134 -0.03841921 C60.14393975 -0.03889356 66.09784548 -0.04094425 72.05175304 -0.04411983 C88.91366108 -0.05293098 105.77556274 -0.05753848 122.6374731 -0.05678936 C123.5474159 -0.0567494 124.4573587 -0.05670945 125.39487553 -0.05666828 C126.30592291 -0.0566274 127.21697029 -0.05658652 128.15562517 -0.0565444 C142.9270011 -0.05613778 157.69835156 -0.06571012 172.46972012 -0.07980665 C187.6187095 -0.09415005 202.76768643 -0.10107796 217.91668278 -0.10021287 C226.42899593 -0.0998802 234.94128238 -0.10265788 243.45358944 -0.11339092 C250.70025067 -0.12246921 257.94687309 -0.1246933 265.19353753 -0.1178815 C268.89398133 -0.11460272 272.59435057 -0.11460814 276.29478741 -0.12323475 C280.29874263 -0.13247329 284.30252309 -0.12635928 288.30648136 -0.11860371 C289.48671279 -0.12374727 290.66694422 -0.12889083 291.88294023 -0.13419026 C292.94874128 -0.12959147 294.01454233 -0.12499267 295.11264038 -0.12025452 C296.03785647 -0.12047188 296.96307257 -0.12068925 297.91632551 -0.12091321 C300.11924076 0.12863445 300.11924076 0.12863445 302.11924076 2.12863445 C302.3127988 4.99332448 302.3814267 7.76098028 302.36216068 10.62643719 C302.36405903 11.50638851 302.36595737 12.38633984 302.36791325 13.29295635 C302.37163162 16.21613631 302.36089434 19.13907011 302.34970951 22.0622282 C302.34851724 24.09568026 302.34806465 26.12913287 302.34832096 28.16258526 C302.3467538 32.43572699 302.33845212 36.70878523 302.32505131 40.98190594 C302.30815807 46.43558787 302.30423419 51.88917713 302.30499649 57.34288216 C302.3047231 61.54930269 302.29921336 65.75570332 302.29199505 69.9621172 C302.28883023 71.97097975 302.28684613 73.97984454 302.28610134 75.98870945 C302.28390886 78.81460469 302.27510037 81.6404062 302.26450443 84.46628094 C302.26518421 85.69264767 302.26518421 85.69264767 302.26587772 86.94378948 C302.23245954 93.10508459 301.68283806 98.92906411 301.11924076 105.12863445 C200.13924076 105.12863445 99.15924076 105.12863445 -4.88075924 105.12863445 C-6.00580207 98.37837745 -6.00580207 98.37837745 -6.00774288 94.69337749 C-6.01056271 93.86198757 -6.01338253 93.03059765 -6.0162878 92.17401409 C-6.01426357 91.28078442 -6.01223934 90.38755474 -6.01015377 89.4672575 C-6.01190609 88.51213772 -6.01365841 87.55701794 -6.01546383 86.57295513 C-6.01985105 83.4287358 -6.01695655 80.28457307 -6.01357174 77.1403532 C-6.0142454 74.95413992 -6.01521594 72.76792671 -6.01647091 70.58171368 C-6.0179434 66.00807257 -6.01580667 61.43445102 -6.01113033 56.86081219 C-6.00541642 50.98477 -6.00872537 45.10877332 -6.0147028 39.23273277 C-6.01830612 34.7230574 -6.01717117 30.21339292 -6.014575 25.70371723 C-6.01390597 23.53586923 -6.01473333 21.36802024 -6.01705456 19.20017338 C-6.01957915 16.18110155 -6.01574401 13.16210494 -6.01015377 10.14303875 C-6.012178 9.23968792 -6.01420223 8.33633709 -6.0162878 7.40561199 C-5.99075263 0.00456194 -5.99075263 0.00456194 0 0 Z " fill="#040404" transform="translate(101.88075923919678,297.8713655471802)"/>
<path d="M0 0 C1.00289062 0.10183594 2.00578125 0.20367187 3.0390625 0.30859375 C3.80992188 0.39238281 4.58078125 0.47617188 5.375 0.5625 C5.375 0.8925 5.375 1.2225 5.375 1.5625 C6.19469741 1.56193042 6.19469741 1.56193042 7.03095436 1.56134933 C39.56631121 1.53887162 72.10166597 1.52176351 104.63702881 1.51143467 C108.56140464 1.51018427 112.48578045 1.50888992 116.41015625 1.50756836 C117.19128462 1.50730605 117.97241298 1.50704374 118.7772119 1.50677348 C131.35238982 1.50244631 143.92756307 1.49457535 156.50273824 1.4853472 C169.44831453 1.47592793 182.39388842 1.47042706 195.339468 1.46841151 C202.5929546 1.4671738 209.84643145 1.46422305 217.09991455 1.45676994 C275.93607193 1.39799055 275.93607193 1.39799055 301.375 2.5625 C302.47159498 61.45347584 302.47159498 61.45347584 302.5 80.4375 C302.50676758 82.21737305 302.50676758 82.21737305 302.51367188 84.03320312 C302.50400735 89.53231647 302.30770175 94.96717409 301.86669922 100.44970703 C301.77508514 101.60036652 301.68347107 102.751026 301.58908081 103.93655396 C301.51843414 104.80311615 301.44778748 105.66967834 301.375 106.5625 C262.69833307 106.75856688 224.02162344 106.93885449 185.34478582 107.09787826 C180.78218421 107.11665143 176.21958315 107.13555571 171.65698242 107.15454102 C170.74862246 107.15831856 169.8402625 107.16209611 168.90437648 107.16598812 C154.18207612 107.22752585 139.45984597 107.29969253 124.73761436 107.3757638 C109.63954297 107.45354136 94.5414527 107.51995114 79.44328386 107.57573253 C70.12135891 107.61053371 60.79956301 107.65427967 51.47773538 107.70934484 C45.09180873 107.74621924 38.70589763 107.7720858 32.3198876 107.78917392 C28.63141202 107.7993727 24.94312728 107.81454139 21.25474167 107.84274101 C17.26207531 107.87314069 13.26956287 107.88042 9.27677917 107.88529968 C8.10266942 107.89792916 6.92855966 107.91055863 5.71887082 107.92357081 C4.12148272 107.91983619 4.12148272 107.91983619 2.49182415 107.91602612 C1.56948347 107.92020304 0.64714279 107.92437996 -0.30314761 107.92868346 C-3.07420836 107.49165455 -3.95557876 106.77631965 -5.625 104.5625 C-5.99414349 102.67847157 -5.99414349 102.67847157 -5.98576355 100.51924133 C-5.98988754 99.6989444 -5.99401154 98.87864746 -5.9982605 98.03349304 C-5.98747467 97.13725723 -5.97668884 96.24102142 -5.96557617 95.31762695 C-5.96601425 94.37109253 -5.96645233 93.42455811 -5.96690369 92.44934082 C-5.96481129 89.31627883 -5.94145873 86.18374992 -5.91796875 83.05078125 C-5.91237441 80.88030795 -5.90810355 78.70983086 -5.90510559 76.53935242 C-5.89364413 70.82312586 -5.86416561 65.10712752 -5.83099365 59.39099121 C-5.80032088 53.55952034 -5.78660622 47.72801264 -5.77148438 41.89648438 C-5.73929728 30.45172258 -5.68808511 19.00713026 -5.625 7.5625 C-6.285 7.5625 -6.945 7.5625 -7.625 7.5625 C-8.66364166 4.44657501 -8.71536928 3.5362344 -7.625 0.5625 C-4.89657939 -0.80171031 -3.01546682 -0.31557211 0 0 Z " fill="#020202" transform="translate(101.625,94.4375)"/>
<path d="M0 0 C30.53945961 -0.02292407 61.07891722 -0.04056669 91.61838341 -0.05106533 C95.24233374 -0.0523157 98.86628406 -0.05361005 102.49023438 -0.05493164 C103.21155045 -0.05519395 103.93286652 -0.05545626 104.67604065 -0.05572652 C116.28123981 -0.06005115 127.8864339 -0.06792063 139.49163008 -0.0771528 C151.44279544 -0.08657929 163.39395818 -0.09207442 175.34512711 -0.09408849 C182.039701 -0.09532501 188.73426215 -0.09837016 195.42883301 -0.10573006 C222.3113242 -0.13418389 249.13577928 -0.06411181 276 1 C276 14.53 276 28.06 276 42 C275.67 42 275.34 42 275 42 C274.97494385 40.88963379 274.9498877 39.77926758 274.92407227 38.63525391 C274.83005085 34.52396681 274.72981743 30.41285077 274.62768555 26.30175781 C274.5843167 24.52087397 274.54264306 22.73994802 274.50268555 20.95898438 C274.4450301 18.40221452 274.3813223 15.84565702 274.31640625 13.2890625 C274.29133751 12.09055161 274.29133751 12.09055161 274.26576233 10.86782837 C274.24607009 6.80193632 274.24607009 6.80193632 273 3 C272.14848457 2.99796521 272.14848457 2.99796521 271.2797668 2.99588931 C237.65221788 2.9152805 204.02471402 2.82434291 170.39723061 2.71994839 C166.36166309 2.70742916 162.3260953 2.69499645 158.29052734 2.68261719 C157.48710121 2.68015119 156.68367508 2.6776852 155.8559027 2.67514448 C142.8382653 2.63539523 129.82061919 2.60265749 116.80295643 2.57250018 C103.45068438 2.54141204 90.09844936 2.50281399 76.74621892 2.45720994 C68.50381253 2.42929605 60.26143329 2.40727562 52.01899227 2.39273749 C46.37074139 2.38221451 40.72254303 2.36441246 35.07433167 2.34083296 C31.8131373 2.32743514 28.55203109 2.31837502 25.29080772 2.31578636 C21.75820125 2.31247899 18.22585263 2.29704273 14.69329834 2.2784729 C13.65828461 2.28040763 12.62327089 2.28234237 11.55689311 2.28433573 C10.61189551 2.27687024 9.6668979 2.26940475 8.69326401 2.26171303 C7.87762474 2.25943471 7.06198547 2.25715638 6.22162986 2.25480902 C3.76685476 1.97325949 2.12786927 1.22640133 0 0 Z " fill="#292929" transform="translate(127,96)"/>
<path d="M0 0 C0.66 0.33 1.32 0.66 2 1 C2.02321368 12.83986971 2.04096103 24.67973398 2.05181217 36.51962185 C2.05702128 42.01789087 2.06408301 47.51614427 2.07543945 53.0144043 C2.08633855 58.32472448 2.09229169 63.63502968 2.09487724 68.94536018 C2.09671886 70.96704405 2.10031501 72.98872713 2.10573006 75.01040459 C2.11303375 77.85127381 2.11398702 80.69208182 2.11352539 83.53295898 C2.11712067 84.36086945 2.12071594 85.18877991 2.12442017 86.04177856 C2.11499739 91.43274693 1.6746836 96.65033949 1 102 C0.01 102 -0.98 102 -2 102 C-1.505 101.505 -1.505 101.505 -1 101 C-0.91001575 97.9717155 -0.88511416 94.9663654 -0.90234375 91.93798828 C-0.90380402 90.98681122 -0.90526428 90.03563416 -0.9067688 89.05563354 C-0.91058499 86.98267222 -0.91671214 84.90971421 -0.92483521 82.83676529 C-0.93754242 79.55937296 -0.94410007 76.28202086 -0.94897461 73.00460815 C-0.96238325 64.8619785 -0.98656473 56.71938689 -1.01037598 48.57678223 C-1.03007179 41.704367 -1.04572897 34.83196594 -1.05593872 27.95952988 C-1.06244041 24.72495754 -1.07495041 21.49044301 -1.08764648 18.25588989 C-1.09127836 16.27752738 -1.09463018 14.29916432 -1.09765625 12.32080078 C-1.10282257 11.41678528 -1.10798889 10.51276978 -1.11331177 9.58135986 C-1.11338226 8.75409393 -1.11345276 7.926828 -1.11352539 7.07449341 C-1.115746 6.35587191 -1.11796661 5.6372504 -1.12025452 4.89685249 C-1 3 -1 3 0 0 Z " fill="#1C1C1C" transform="translate(402,299)"/>
<path d="M0 0 C11.55 0 23.1 0 35 0 C35 13.53 35 27.06 35 41 C34.67 41 34.34 41 34 41 C33.97494385 39.88963379 33.9498877 38.77926758 33.92407227 37.63525391 C33.83005085 33.52396681 33.72981743 29.41285077 33.62768555 25.30175781 C33.5843167 23.52087397 33.54264306 21.73994802 33.50268555 19.95898438 C33.4450301 17.40221452 33.3813223 14.84565702 33.31640625 12.2890625 C33.29969376 11.49005524 33.28298126 10.69104797 33.26576233 9.86782837 C33.24607009 5.80193632 33.24607009 5.80193632 32 2 C21.44 1.67 10.88 1.34 0 1 C0 0.67 0 0.34 0 0 Z " fill="#191919" transform="translate(368,97)"/>
<path d="M0 0 C1.00289062 0.10183594 2.00578125 0.20367187 3.0390625 0.30859375 C3.80992188 0.39238281 4.58078125 0.47617188 5.375 0.5625 C5.045 1.2225 4.715 1.8825 4.375 2.5625 C1.405 2.5625 -1.565 2.5625 -4.625 2.5625 C-4.955 4.2125 -5.285 5.8625 -5.625 7.5625 C-6.285 7.5625 -6.945 7.5625 -7.625 7.5625 C-8.66364166 4.44657501 -8.71536928 3.5362344 -7.625 0.5625 C-4.89657939 -0.80171031 -3.01546682 -0.31557211 0 0 Z " fill="#FEFEFE" transform="translate(101.625,94.4375)"/>
<path d="M0 0 C0.66 0.33 1.32 0.66 2 1 C2.02721176 2.89575251 2.04649136 4.79161979 2.0625 6.6875 C2.07410156 7.74324219 2.08570313 8.79898437 2.09765625 9.88671875 C2.00865425 12.72410262 1.64939838 15.2438919 1 18 C0.67 18 0.34 18 0 18 C-0.19484938 15.56288386 -0.38115178 13.12562602 -0.5625 10.6875 C-0.64661133 9.65206055 -0.64661133 9.65206055 -0.73242188 8.59570312 C-0.96581505 5.37487726 -1.03224218 3.09672655 0 0 Z " fill="#6B6B6B" transform="translate(402,299)"/>
</svg>
