<?xml version="1.0" encoding="UTF-8"?>
<!DOCTYPE svg PUBLIC "-//W3C//DTD SVG 1.1//EN" "http://www.w3.org/Graphics/SVG/1.1/DTD/svg11.dtd">
<svg xmlns="http://www.w3.org/2000/svg" version="1.1" width="70px" height="70px" style="shape-rendering:geometricPrecision; text-rendering:geometricPrecision; image-rendering:optimizeQuality; fill-rule:evenodd; clip-rule:evenodd" xmlns:xlink="http://www.w3.org/1999/xlink">
<g><path style="opacity:1" fill="#000000" d="M 1.5,1.5 C 23.5,1.5 45.5,1.5 67.5,1.5C 67.5,3.5 67.5,5.5 67.5,7.5C 45.5,7.5 23.5,7.5 1.5,7.5C 1.5,5.5 1.5,3.5 1.5,1.5 Z"/></g>
<g><path style="opacity:1" fill="#000000" d="M 1.5,13.5 C 8.83333,13.5 16.1667,13.5 23.5,13.5C 23.5,15.5 23.5,17.5 23.5,19.5C 16.1667,19.5 8.83333,19.5 1.5,19.5C 1.5,17.5 1.5,15.5 1.5,13.5 Z"/></g>
<g><path style="opacity:1" fill="#000000" d="M 45.5,13.5 C 52.8333,13.5 60.1667,13.5 67.5,13.5C 67.5,15.5 67.5,17.5 67.5,19.5C 60.1667,19.5 52.8333,19.5 45.5,19.5C 45.5,17.5 45.5,15.5 45.5,13.5 Z"/></g>
<g><path style="opacity:1" fill="#000000" d="M 1.5,25.5 C 8.83333,25.5 16.1667,25.5 23.5,25.5C 23.5,27.5 23.5,29.5 23.5,31.5C 16.1667,31.5 8.83333,31.5 1.5,31.5C 1.5,29.5 1.5,27.5 1.5,25.5 Z"/></g>
<g><path style="opacity:1" fill="#000000" d="M 45.5,25.5 C 52.8333,25.5 60.1667,25.5 67.5,25.5C 67.5,27.5 67.5,29.5 67.5,31.5C 60.1667,31.5 52.8333,31.5 45.5,31.5C 45.5,29.5 45.5,27.5 45.5,25.5 Z"/></g>
<g><path style="opacity:1" fill="#000000" d="M 1.5,37.5 C 8.83333,37.5 16.1667,37.5 23.5,37.5C 23.5,39.5 23.5,41.5 23.5,43.5C 16.1667,43.5 8.83333,43.5 1.5,43.5C 1.5,41.5 1.5,39.5 1.5,37.5 Z"/></g>
<g><path style="opacity:1" fill="#000000" d="M 45.5,37.5 C 52.8333,37.5 60.1667,37.5 67.5,37.5C 67.5,39.5 67.5,41.5 67.5,43.5C 60.1667,43.5 52.8333,43.5 45.5,43.5C 45.5,41.5 45.5,39.5 45.5,37.5 Z"/></g>
<g><path style="opacity:1" fill="#000000" d="M 1.5,49.5 C 23.5,49.5 45.5,49.5 67.5,49.5C 67.5,51.5 67.5,53.5 67.5,55.5C 45.5,55.5 23.5,55.5 1.5,55.5C 1.5,53.5 1.5,51.5 1.5,49.5 Z"/></g>
<g><path style="opacity:1" fill="#000000" d="M 1.5,61.5 C 23.5,61.5 45.5,61.5 67.5,61.5C 67.5,63.5 67.5,65.5 67.5,67.5C 45.5,67.5 23.5,67.5 1.5,67.5C 1.5,65.5 1.5,63.5 1.5,61.5 Z"/></g>
</svg>
