<?xml version="1.0" encoding="UTF-8"?>
<!DOCTYPE svg PUBLIC "-//W3C//DTD SVG 1.1//EN" "http://www.w3.org/Graphics/SVG/1.1/DTD/svg11.dtd">
<svg xmlns="http://www.w3.org/2000/svg" version="1.1" width="120px" height="120px" style="shape-rendering:geometricPrecision; text-rendering:geometricPrecision; image-rendering:optimizeQuality; fill-rule:evenodd; clip-rule:evenodd" xmlns:xlink="http://www.w3.org/1999/xlink">
<g><path style="opacity:1" fill="#000000" d="M 2.5,2.5 C 18.8333,2.5 35.1667,2.5 51.5,2.5C 51.5,6.16667 51.5,9.83333 51.5,13.5C 35.1667,13.5 18.8333,13.5 2.5,13.5C 2.5,9.83333 2.5,6.16667 2.5,2.5 Z"/></g>
<g><path style="opacity:1" fill="#000000" d="M 67.5,2.5 C 83.8333,2.5 100.167,2.5 116.5,2.5C 116.5,6.16667 116.5,9.83333 116.5,13.5C 100.167,13.5 83.8333,13.5 67.5,13.5C 67.5,9.83333 67.5,6.16667 67.5,2.5 Z"/></g>
<g><path style="opacity:1" fill="#000000" d="M 2.5,23.5 C 18.8333,23.5 35.1667,23.5 51.5,23.5C 51.5,27.1667 51.5,30.8333 51.5,34.5C 35.1667,34.5 18.8333,34.5 2.5,34.5C 2.5,30.8333 2.5,27.1667 2.5,23.5 Z"/></g>
<g><path style="opacity:1" fill="#000000" d="M 67.5,23.5 C 83.8333,23.5 100.167,23.5 116.5,23.5C 116.5,27.1667 116.5,30.8333 116.5,34.5C 100.167,34.5 83.8333,34.5 67.5,34.5C 67.5,30.8333 67.5,27.1667 67.5,23.5 Z"/></g>
<g><path style="opacity:1" fill="#000000" d="M 2.5,43.5 C 40.5,43.5 78.5,43.5 116.5,43.5C 116.5,47.1667 116.5,50.8333 116.5,54.5C 78.5,54.5 40.5,54.5 2.5,54.5C 2.5,50.8333 2.5,47.1667 2.5,43.5 Z"/></g>
<g><path style="opacity:1" fill="#000000" d="M 2.5,64.5 C 40.5,64.5 78.5,64.5 116.5,64.5C 116.5,68.1667 116.5,71.8333 116.5,75.5C 78.5,75.5 40.5,75.5 2.5,75.5C 2.5,71.8333 2.5,68.1667 2.5,64.5 Z"/></g>
<g><path style="opacity:1" fill="#000000" d="M 2.5,84.5 C 40.5,84.5 78.5,84.5 116.5,84.5C 116.5,88.1667 116.5,91.8333 116.5,95.5C 78.5,95.5 40.5,95.5 2.5,95.5C 2.5,91.8333 2.5,88.1667 2.5,84.5 Z"/></g>
<g><path style="opacity:1" fill="#000000" d="M 2.5,105.5 C 40.5,105.5 78.5,105.5 116.5,105.5C 116.5,109.167 116.5,112.833 116.5,116.5C 78.5,116.5 40.5,116.5 2.5,116.5C 2.5,112.833 2.5,109.167 2.5,105.5 Z"/></g>
</svg>
