<?xml version="1.0" encoding="UTF-8"?>
<!DOCTYPE svg PUBLIC "-//W3C//DTD SVG 1.1//EN" "http://www.w3.org/Graphics/SVG/1.1/DTD/svg11.dtd">
<svg xmlns="http://www.w3.org/2000/svg" version="1.1" width="255px" height="239px" style="shape-rendering:geometricPrecision; text-rendering:geometricPrecision; image-rendering:optimizeQuality; fill-rule:evenodd; clip-rule:evenodd" xmlns:xlink="http://www.w3.org/1999/xlink">
<g><path fill="#010101" fill-opacity="0.996" stroke="#010101" stroke-width="0.5" stroke-opacity="0.996" d="M 9.99,184 c 1.14,-32.65 -2.62,-67.22 10.34,-98.04 c 7.95,-20.5 17.39,-43.24 37.29,-54.84 c 30.87,-16.23 62.41,-21.6 96.88,-23.62 c 29.07,0.82 53.24,17.36 72.1,38.4 c 16.81,21.5 21.97,59.06 18.2,85.47 c -3,12.04 -2.84,23.83 -2.88,36.13 c -3.07,13.71 -7.69,29.66 -18.47,39.39 c -36.41,31.03 -70.93,16.42 -112.96,13.14 c -20.27,-5.58 -40.6,-10.9 -60.99,-15.98 c -9.75,-1.24 -27.24,16.54 -34.06,7 c -4.92,-7.71 -4.97,-18.2 -5.45,-27.05 Z M 40.03,79.97 c 0.18,0.49 0.52,0.71 1.04,0.64 c 27.24,-8.94 57.73,-16.82 86.43,-17.78 c 18.67,0.01 37.33,0.01 56,0 c 12.96,0.31 25.91,0.89 38.83,1.74 c 2.07,-0.9 -2,-7.4 -3.05,-8.53 c -10.48,-10.42 -30.75,-25.41 -44.79,-29.94 c -50.96,-5.29 -113.17,-1.85 -134.46,53.87 Z M 21.51,187 c 0.5,4.68 0.09,8.88 1.79,13.38 c 0.5,0.9 1.24,1.1 2.21,0.61 c 13.55,-6.9 21.48,-10.23 36.82,-5.69 c 38.02,11.27 71.28,19.99 111.16,22.21 c 11.6,0.2 30.14,-11.47 40.13,-17.3 c 20.87,-13.97 16.32,-37.08 19.22,-58.71 c 0.86,-17.01 4.45,-48.91 -2.78,-64.09 c -1.77,-4.51 -5.41,-4.34 -9.54,-4.6 c -24.18,-4.44 -73.55,-15.04 -86.86,13.23 c -10.95,27.62 -12.61,69.28 19.03,83.62 c 33.7,13.6 63.2,-1.39 60.24,-40.16 c -1.58,-16.18 -12.61,-24.84 -28.43,-25.33 c -17.88,1.09 -17.48,21.78 -27.41,32.25 c -1.97,0.83 -2.61,-4.74 -3.04,-5.92 c -4.41,-39.64 58.31,-51.21 70.62,-7.55 c 4.24,40.84 -22.3,60.73 -61.16,57.92 c -5.94,-0.95 -11.22,-0.62 -17.04,-2.8 c -0.64,-0.17 -1.27,-0.17 -1.9,0 c -1.82,1.84 -3.69,3.64 -5.62,5.39 c -11.07,9.42 -29.32,9.01 -32.29,-7.78 c -0.98,-7.13 12.22,-15.32 16.8,-19.73 c 0.49,-0.38 0.86,-0.86 1.08,-1.43 c -2.73,-7.73 -5.15,-15.56 -7.27,-23.49 c -0.36,-0.61 -0.9,-0.87 -1.61,-0.77 c -33,12.93 -35.7,-33.05 -10.16,-34.27 c 3.76,0.33 7.48,0.9 11.17,1.71 c 2.41,0.51 2.97,-0.81 3.92,-2.67 c 2.72,-6.48 5.73,-12.8 9.04,-18.99 c 0.39,-0.71 0.4,-1.41 0,-2.11 c -5.2,-1.97 -10.57,-2.53 -16.09,-1.68 c -20.39,4.4 -40.72,9.04 -61,13.91 c -12.45,3.56 -21.17,5.85 -24.15,19.81 c -7.23,26.71 -6.34,53.67 -6.88,81.03 Z"/></g>
</svg>
